<?xml version="1.0" encoding="utf-8"?>
<!-- Generator: Adobe Illustrator 27.5.0, SVG Export Plug-In . SVG Version: 6.00 Build 0)  -->
<svg version="1.1" id="Layer_1" xmlns="http://www.w3.org/2000/svg" xmlns:xlink="http://www.w3.org/1999/xlink" x="0px" y="0px"
	 viewBox="0 0 276.951 157.535" style="enable-background:new 0 0 276.951 157.535;" xml:space="preserve">
<g>
	<g>
		<path style="fill:#983726;" d="M247.203,28.715L17.464,28.538l25.893,93.999c0,6.277,40.507,11.366,90.471,11.366
			c49.97,0,90.475-5.088,90.475-11.366l25.924-94.345L247.203,28.715z"/>
		<path style="fill:#BE4734;" d="M62.446,78.585c-3.293-16.579-4.682-33.53-8.397-50.02l-36.584-0.027l25.893,93.999
			c0,3.269,10.976,6.211,28.547,8.288C68.334,113.489,65.894,95.949,62.446,78.585z"/>
		<path style="opacity:0.3;fill:#983726;" d="M67.062,28.576l-12.354-0.011c1.816,8.119,16.268,86.55,19.599,102.531
			c3.671,0.427,5.89,0.614,10.079,0.958C78.028,97.663,72.71,63.092,67.062,28.576z"/>
		<g style="opacity:0.2;">
			<path style="fill:#FFFFFF;" d="M33.437,28.549l23.618,100.005c0.446,0.088,0.904,0.178,1.371,0.264L34.743,28.549H33.437z"/>
			<path style="fill:#FFFFFF;" d="M50.07,28.563l20.083,102.048c0.44,0.056,0.88,0.111,1.329,0.162L51.365,28.565L50.07,28.563z"/>
			<path style="fill:#FFFFFF;" d="M66.701,28.576l16.274,103.365c0.431,0.036,0.869,0.071,1.304,0.105L67.988,28.576H66.701z"/>
			<path style="fill:#FFFFFF;" d="M83.331,28.591l12.313,104.251c0.427,0.026,0.857,0.052,1.286,0.073L84.612,28.591H83.331z"/>
			<path style="fill:#FFFFFF;" d="M99.962,28.601l8.25,104.84c0.426,0.014,0.853,0.029,1.279,0.047l-8.257-104.887H99.962z"/>
			<path style="fill:#FFFFFF;" d="M116.585,28.612l4.142,105.172c0.422,0.008,0.846,0.014,1.27,0.022l-4.139-105.19L116.585,28.612z
				"/>
			<path style="fill:#FFFFFF;" d="M133.211,28.627v105.275c0.206,0,0.411,0,0.617,0c0.219,0,0.433,0,0.652,0l0.002-105.275H133.211z
				"/>
			<path style="fill:#FFFFFF;" d="M149.832,28.638l-4.14,105.169c0.424-0.008,0.849-0.018,1.271-0.025l4.139-105.14L149.832,28.638z
				"/>
			<path style="fill:#FFFFFF;" d="M166.451,28.651l-8.252,104.833c0.427-0.015,0.851-0.029,1.277-0.044l8.25-104.79H166.451z"/>
			<path style="fill:#FFFFFF;" d="M183.069,28.664l-12.311,104.251c0.433-0.021,0.86-0.05,1.289-0.073l12.302-104.175
				L183.069,28.664z"/>
			<path style="fill:#FFFFFF;" d="M199.688,28.678l-16.276,103.367c0.438-0.036,0.871-0.074,1.304-0.111l16.259-103.256H199.688z"/>
			<path style="fill:#FFFFFF;" d="M216.3,28.69l-20.092,102.079c0.447-0.049,0.889-0.106,1.327-0.161l20.058-101.914L216.3,28.69z"
				/>
			<path style="fill:#FFFFFF;" d="M232.912,28.704L209.27,128.814c0.464-0.092,0.92-0.18,1.367-0.267l23.579-99.842H232.912z"/>
		</g>
		<g style="opacity:0.5;">
			<path style="fill:#691D04;" d="M34.167,28.549l23.615,100.005c0.448,0.088,0.902,0.178,1.367,0.264L35.471,28.549H34.167z"/>
			<path style="fill:#691D04;" d="M50.801,28.563l20.083,102.048c0.438,0.056,0.882,0.111,1.324,0.162L52.091,28.565L50.801,28.563z
				"/>
			<path style="fill:#691D04;" d="M67.432,28.576l16.274,103.365c0.429,0.036,0.863,0.071,1.301,0.105L68.716,28.576H67.432z"/>
			<path style="fill:#691D04;" d="M84.061,28.591l12.311,104.251c0.428,0.026,0.857,0.052,1.288,0.073L85.341,28.591H84.061z"/>
			<path style="fill:#691D04;" d="M100.688,28.601l8.255,104.84c0.424,0.014,0.851,0.029,1.277,0.047l-8.254-104.887H100.688z"/>
			<path style="fill:#691D04;" d="M117.314,28.612l4.14,105.172c0.424,0.008,0.846,0.014,1.272,0.022l-4.142-105.19L117.314,28.612z
				"/>
			<path style="fill:#691D04;" d="M133.939,28.627v105.275c0.206,0,0.409,0,0.621,0c0.214,0,0.432,0,0.647,0V28.627H133.939z"/>
			<path style="fill:#691D04;" d="M150.561,28.638l-4.142,105.169c0.424-0.008,0.851-0.018,1.272-0.025l4.137-105.14L150.561,28.638
				z"/>
			<path style="fill:#691D04;" d="M167.182,28.651l-8.254,104.833c0.426-0.015,0.853-0.029,1.277-0.044l8.25-104.79H167.182z"/>
			<path style="fill:#691D04;" d="M183.797,28.664l-12.309,104.251c0.431-0.021,0.857-0.05,1.286-0.073l12.302-104.175
				L183.797,28.664z"/>
			<path style="fill:#691D04;" d="M200.415,28.678l-16.276,103.367c0.438-0.036,0.871-0.074,1.302-0.111l16.26-103.256H200.415z"/>
			<path style="fill:#691D04;" d="M217.029,28.69l-20.09,102.079c0.446-0.049,0.888-0.106,1.326-0.161l20.059-101.914L217.029,28.69
				z"/>
			<path style="fill:#691D04;" d="M233.64,28.704l-23.642,100.109c0.467-0.092,0.922-0.18,1.366-0.267l23.582-99.842H233.64z"/>
		</g>
		<path style="opacity:0.3;fill:#6E2312;" d="M247.203,28.715l-49.585-0.041c-6.748,34.387-11.842,69.073-17.585,103.635
			c26.507-1.98,44.27-5.618,44.27-9.774l25.924-94.345L247.203,28.715z"/>
		<g style="opacity:0.3;">
			<path style="fill:#8B3021;" d="M63.594,113.464c-1.123-3.87-2.304-7.727-3.967-11.41c-1.657-3.661-3.738-7.245-5.879-10.643
				c-0.94-1.49-1.969-2.922-3.094-4.278c-1.222-1.469-2.715-2.726-3.898-4.204c-1.391-1.743-2.434,0.264-2.585,1.547
				c-0.216,1.802-0.623,3.571-0.824,5.375c-0.252,2.249-0.159,4.562-0.159,6.817c0.005,3.958,0.239,7.844,1.159,11.699
				c0.509,2.133,1.206,4.212,1.74,6.336c0.424,1.674,0.855,3.653,1.717,5.166c0.033,0.054,0.129-0.063,0.125-0.103
				c-0.033-0.231,0.005-0.14-0.176-0.339c-0.029-0.032-0.129,0.08-0.094,0.123c-0.018-0.021-0.192-1.072-0.244-1.271
				c-0.234-0.891-0.522-1.771-0.777-2.663c-0.494-1.735-0.893-3.503-1.359-5.249c-0.98-3.663-1.538-7.306-1.67-11.095
				c-0.134-3.783-0.21-7.712,0.364-11.462c0.215-1.405,0.427-2.843,0.692-4.237c0.366-1.941,1.987,0.096,2.329,0.426
				c0.628,0.612,1.226,1.236,1.819,1.886c4.707,5.17,8.4,11.715,11.112,18.145c1.342,3.18,2.311,6.509,3.273,9.813
				c0.498,1.704,0.987,3.38,1.367,5.115c0.192,0.903,0.421,1.79,0.589,2.699c0.147,0.793,0.522,1.791,0.476,2.602
				c-0.011,0.198,0.326-0.121,0.339-0.249c0.14-1.308-0.429-3.046-0.761-4.312C64.654,117.621,64.194,115.537,63.594,113.464z"/>
			<path style="fill:#8B3021;" d="M53.504,96.551c-1.561-2.826-3.38-6.476-6.03-8.436c-0.052-0.036-0.127-0.018-0.177,0.011
				c-1.541,0.872-1.471,3.151-1.601,4.721c-0.366,4.422-0.494,8.81-0.402,13.237c0.083,4.15,0.893,8.223,2.217,12.144
				c0.569,1.677,2.436,6.338,4.417,6.868c0.105,0.025,0.326-0.268,0.223-0.316c-1.682-0.778-2.849-4.67-3.539-6.255
				c-1.473-3.375-1.939-7.283-2.224-10.919c-0.246-3.132-0.217-6.262-0.009-9.388c0.085-1.255,0.08-2.487,0.049-3.742
				c-0.026-1.056,0.007-6.541,1.844-4.638c4.318,4.47,7.346,11.459,9.453,17.217c2.583,7.044,5.531,13.766,6.721,21.247
				c0.044,0.278,0.479-0.15,0.457-0.331c-0.897-7.426-3.853-14.509-6.727-21.348C56.729,103.183,55.315,99.828,53.504,96.551z"/>
			<path style="fill:#8B3021;" d="M59.714,121.589c-1.26-3.206-2.747-6.229-4.292-9.307c-1.563-3.122-3.099-6.254-4.733-9.344
				c-0.151-0.29-1.52-3.651-2.232-3.503c-2.315,0.477-0.826,6.593-0.598,7.945c1.041,6.29,4.403,11.814,6.776,17.666
				c0.042,0.107,0.263-0.126,0.232-0.22c-1.524-4.477-3.832-8.677-5.292-13.148c-0.835-2.572-1.275-5.184-1.505-7.88
				c-0.078-0.919-0.067-1.847-0.111-2.768c-0.107-2.359,1.817,1.493,1.766,1.395c2.332,4.512,4.595,9.069,6.865,13.619
				c2.034,4.076,3.485,8.344,5.836,12.256c0.096,0.162,0.379-0.194,0.339-0.322C62.038,125.784,60.568,123.766,59.714,121.589z"/>
			<path style="fill:#8B3021;" d="M57.668,118.662c-1.044-1.947-2.342-3.76-3.458-5.667c-0.832-1.426-1.408-2.918-2.473-4.187
				c-0.246-0.299-0.744,0.546-0.755,0.73c-0.173,2.891,0.933,6.104,2.135,8.691c1.221,2.643,3.376,7.03,5.082,8.522
				c-0.066-0.059-0.228,0.143-0.169,0.21c0.048,0.059,0.1,0.118,0.149,0.173c0.063,0.069,0.232-0.148,0.199-0.217
				c-2.371-5.233-5.821-10.454-6.468-16.287c0.674,0.895,1.193,1.944,1.779,2.869c1.181,1.856,2.427,3.671,3.588,5.54
				c1.974,3.177,2.579,7.103,4.532,10.199c0.083,0.133,0.351-0.167,0.295-0.281C60.406,125.64,59.448,121.978,57.668,118.662z"/>
			<path style="fill:#8B3021;" d="M56.199,119.812c-0.614-0.948-2.117-3.058-2.117-4.261c0-0.164-0.261,0.092-0.27,0.199
				c-0.061,1.193,1.139,2.817,1.632,3.853c1.041,2.183,2.175,4.422,3.409,6.509c0.119,0.201,0.525-0.253,0.44-0.427
				C58.334,123.7,57.396,121.663,56.199,119.812z"/>
			<path style="fill:#8B3021;" d="M32.765,70.278c-1.322-6.856-2.907-13.625-4.642-20.391c-0.026-0.101-0.254,0.118-0.229,0.224
				c3.179,13.039,5.001,26.354,8.787,39.235c0.8,2.718,1.375,5.563,1.907,8.342c0.657,3.432,1.976,6.733,2.972,10.075
				c1.851,6.2,2.923,12.533,5.403,18.549c0.038,0.092,0.234-0.107,0.201-0.191c-4.747-11.649-6.2-24.503-9.321-36.633
				C36.181,83.036,34.028,76.845,32.765,70.278z"/>
			<path style="fill:#8B3021;" d="M72.293,120.071c-2.09-4.259-4.133-8.52-6.031-12.867c-1.782-4.068-3.557-8.167-5.856-11.976
				c-2.106-3.481-4.781-6.61-7.404-9.706c-5.709-6.732-11.253-12.756-13.324-21.578c-1.059-4.493-1.548-9.061-2.818-13.522
				c-1.259-4.425-1.898-8.841-2.624-13.372c-0.021-0.114-0.304,0.132-0.288,0.246c0.467,3.863,0.71,7.679,1.618,11.476
				c1.106,4.62,2.157,9.167,2.941,13.857c0.595,3.591,1.458,7.766,3.703,10.733c2.673,3.53,5.24,6.85,8.235,10.12
				c6.368,6.955,11.07,14.436,14.854,23.049c1.927,4.392,3.972,8.7,6.017,13.037c1.802,3.829,4.215,7.367,5.923,11.209
				c0.1,0.227,0.575-0.269,0.493-0.478C76.277,126.774,73.982,123.517,72.293,120.071z"/>
			<path style="fill:#8B3021;" d="M65.077,78.694c0.689,3.779,1.069,7.623,2.177,11.315c0.038,0.135,0.323-0.154,0.292-0.282
				c-1.86-7.407-2.563-15.168-3.733-22.706c-1.259-8.106-3.727-16.095-4.142-24.317c-0.006-0.143-0.234,0.085-0.239,0.177
				c-0.15,8.029,1.719,15.951,3.257,23.783C63.48,70.679,64.342,74.671,65.077,78.694z"/>
			<path style="fill:#8B3021;" d="M84.847,71.63c1.583,8.892,4.133,17.8,8.009,25.922c0.076,0.158,0.36-0.188,0.328-0.316
				c-0.464-1.774-1.4-3.387-1.951-5.146c-0.683-2.184-1.306-4.427-1.838-6.649c-1.004-4.241-2.208-8.468-3.092-12.734
				c-0.961-4.62-1.587-9.289-2.671-13.886c-1.169-4.972-2.936-9.767-3.637-14.825c-0.018-0.133-0.223,0.073-0.214,0.156
				c0.315,4.161,1.273,8.095,2.179,12.169C83.087,61.401,83.936,66.511,84.847,71.63z"/>
			<path style="fill:#8B3021;" d="M90.964,83.67c0.5,1.866,1.549,7.723,3.624,8.435c0.082,0.028,0.209-0.078,0.26-0.129
				c0.952-0.995,0.802-2.971,1.008-4.204c0.669-4.057,1.737-7.855,1.73-11.994c-0.01-8.251-0.319-16.517-0.402-24.779
				c-0.003-0.191-0.326,0.107-0.326,0.239c-0.067,6.834,0.036,13.641-0.183,20.468c-0.125,3.97,0.127,7.755-0.769,11.663
				c-0.451,1.955-0.649,3.965-0.931,5.948c-0.203,1.409-0.317,2.293-1.237,0.458c-3.113-6.195-4.269-13.251-6.024-19.896
				c-1.659-6.285-3.229-12.557-4.202-18.993c-0.018-0.128-0.214,0.064-0.205,0.15c0.799,6.889,2.172,13.652,4.28,20.267
				C88.884,75.366,89.859,79.554,90.964,83.67z"/>
			<path style="fill:#8B3021;" d="M93.505,75.936c1.639-9.629,1.354-19.499,1.731-29.237c0.006-0.161-0.262,0.093-0.271,0.195
				c-0.48,5.106-0.906,10.203-1.214,15.325c-0.284,4.697-0.752,9.42-0.911,14.123C92.826,76.743,93.467,76.142,93.505,75.936z"/>
			<path style="fill:#8B3021;" d="M91.621,68.269c0.163-3.043-0.094-6.123-0.38-9.152c-0.257-2.757-0.183-5.56-0.639-8.3
				c-0.021-0.122-0.31,0.142-0.297,0.251c0.605,5.796,0.087,11.701,0.911,17.49C91.253,68.819,91.611,68.403,91.621,68.269z"/>
			<path style="fill:#8B3021;" d="M97.401,92.291c-0.563,2.539-0.549,5.129-0.807,7.701c-0.031,0.318,0.485-0.187,0.523-0.323
				c0.904-3.169,1.072-6.754,1.632-10.019c0.471-2.751,0.524-6.123,0.004-8.875c-0.022-0.114-0.274,0.128-0.266,0.229
				C98.806,84.642,98.187,88.755,97.401,92.291z"/>
			<path style="fill:#8B3021;" d="M87.917,101.53c2.384,7.941,2.411,16.351,5.76,24.021c0.058,0.14,0.317-0.161,0.283-0.274
				c-2.164-7.983-3.014-16.149-5.769-24.011C88.147,101.14,87.883,101.413,87.917,101.53z"/>
			<path style="fill:#8B3021;" d="M96.513,111.038c-0.038-0.121-0.286,0.144-0.264,0.253c1.188,5.712,2.025,11.44,3.371,17.118
				c0.063,0.265,0.592-0.289,0.576-0.483c-0.196-2.472-0.969-4.835-1.453-7.261C98.091,117.404,97.448,114.234,96.513,111.038z"/>
			<path style="fill:#8B3021;" d="M103.745,91.676c-0.007-0.191-0.311,0.114-0.317,0.231c-0.23,5.972-0.926,11.952-0.438,17.933
				c0.438,5.421,1.451,10.73,1.705,16.183c0.009,0.215,0.339-0.121,0.346-0.253c0.244-5.738-0.346-11.108-0.858-16.799
				C103.671,103.235,103.979,97.428,103.745,91.676z"/>
			<path style="fill:#8B3021;" d="M101.782,112.975c-0.027-0.102-0.248,0.115-0.235,0.199c0.561,5.125,0.605,10.114,1.617,15.219
				c0.052,0.249,0.534-0.287,0.534-0.453c0.026-2.985-0.692-5.88-1.103-8.826C102.311,117.055,102.246,115.005,101.782,112.975z"/>
			<path style="fill:#8B3021;" d="M119.735,50.061c-0.024-0.167-0.282,0.09-0.272,0.196c1.123,13.083,1.875,26.166,2.751,39.253
				c0.813,12.166,4.967,23.928,7.412,35.8c0.038,0.19,0.469-0.216,0.449-0.382c-1.512-12.147-6.305-23.689-7.111-35.965
				C122.11,75.991,121.477,62.966,119.735,50.061z"/>
			<path style="fill:#8B3021;" d="M126.488,81.333c-0.356,12.335,2.017,23.923,4.643,35.91c0.03,0.14,0.335-0.154,0.319-0.272
				c-1.596-12.011-4.2-23.706-4.655-35.857C126.788,80.925,126.495,81.219,126.488,81.333z"/>
			<path style="fill:#8B3021;" d="M138.67,68.375c0.241-5.962,1.254-12.036,0.435-17.992c-0.023-0.159-0.27,0.088-0.264,0.189
				c0.431,5.823-0.768,11.678-1.284,17.464c-0.516,5.823-0.458,11.689-0.382,17.522c0.063,4.868-0.503,9.792-0.564,14.671
				c-0.078,6.458-0.563,12.952-0.395,19.404c0.004,0.236,0.384-0.134,0.388-0.286c0.426-11.594,1.413-23.179,1.924-34.777
				C138.766,79.196,138.452,73.772,138.67,68.375z"/>
			<path style="fill:#8B3021;" d="M140.637,93.518c-1.105,5.707-1.791,11.387-1.672,17.202c0.114,5.704-1.034,11.537-0.474,17.144
				c-0.022-0.205-0.308,0.124-0.316,0.227c-0.005,0.058-0.012,0.117-0.014,0.172c-0.018,0.199,0.319-0.103,0.337-0.209
				c0.962-5.143,1.519-10.595,1.73-15.823c0.128-3.236-0.109-6.461,0.179-9.689c0.275-3.116,0.736-6.216,0.753-9.346
				C141.162,92.871,140.667,93.371,140.637,93.518z"/>
			<path style="fill:#8B3021;" d="M145.969,78.845c0.583-4.806,0.686-9.888,0.549-14.727c-0.007-0.22-0.353,0.13-0.359,0.262
				c-0.594,9.956-2.585,19.83-2.449,29.813c0.139,10.353-2.55,20.644-2.155,31.008c0.007,0.173,0.277-0.103,0.284-0.205
				c0.566-10.628,2.112-21.118,3.092-31.694C145.377,88.49,145.382,83.656,145.969,78.845z"/>
			<g>
				<path style="fill:#983726;" d="M139.153,59.023c54.292-0.243,89.215-6.531,105.441-10.335l5.633-20.497l-3.023,0.524
					L17.464,28.538l5.338,19.38C41.655,52.016,83.069,59.272,139.153,59.023z"/>
				<path style="fill:#983726;" d="M40.582,112.47l2.775,10.066c0,6.277,40.507,11.366,90.471,11.366
					c49.97,0,90.475-5.088,90.475-11.366l2.862-10.422c-18.166,3.808-47.023,7.861-88.012,8.042
					C96.791,120.346,62.804,116.252,40.582,112.47z"/>
				<path style="fill:#983726;" d="M139.153,98.131c-46.646,0.211-83.139-4.775-104.95-8.818l4.733,17.182
					c22.173,3.858,56.793,8.162,100.217,7.971c40.402-0.18,70.084-3.709,89.312-7.074l4.725-17.191
					C214.256,93.791,183.024,97.937,139.153,98.131z"/>
			</g>
			<path style="fill:#8B3021;" d="M178.28,105.752c2.954-1.255,4.438-4.615,5.316-7.511c1.542-5.066,3.083-10.26,3.742-15.532
				c0.739-5.89,0.638-11.834,1.217-17.74c0.536-5.478,1.65-10.99,1.956-16.468c0.018-0.353-0.554,0.179-0.587,0.361
				c-1.661,9.107-2.48,18.134-2.744,27.4c-0.151,5.326-0.995,10.466-2.184,15.65c-0.578,2.53-1.357,5.028-2.202,7.474
				c-0.708,2.048-2.369,5.513-4.978,5.513c-1.548,0-2.934-2.145-3.613-3.222c-2.3-3.619-3.288-8.327-4.283-12.443
				c-1.227-5.073-2.484-10.24-2.703-15.463c-0.201-4.806-0.324-9.643-1.115-14.397c-0.29-1.757-0.524-9.131-2.708-9.674
				c-0.085-0.022-0.277,0.225-0.188,0.269c1.49,0.755,1.316,6.482,1.548,8.044c0.398,2.63,0.714,5.268,0.879,7.925
				c0.339,5.609,0.319,11.162,1.436,16.689c1.121,5.54,2.293,11.197,4.385,16.461C172.297,101.211,174.889,107.19,178.28,105.752z"
				/>
			<path style="fill:#8B3021;" d="M170.113,80.993c0.288,2.31,4.247,22.248,8.718,18.445c2.302-1.959,3.162-5.364,3.731-8.211
				c1.005-5.012,2.074-9.924,2.894-14.982c1.637-10.119,2.922-20.297,2.614-30.598c-0.011-0.324-0.511,0.187-0.52,0.377
				c-0.529,8.999-0.397,17.885-1.956,26.778c-0.746,4.267-1.145,8.658-2.228,12.853c-1.005,3.882-1.462,9.091-3.943,12.362
				c-2.695,3.559-6.421-8.922-6.702-10.047c-1.157-4.615-1.733-9.311-2.084-14.052c-0.354-4.758-0.404-9.508-0.815-14.271
				c-0.348-3.984-0.397-8.194-1.757-11.998c-0.038-0.103-0.247,0.122-0.221,0.213c1.596,5.448,1.139,11.656,1.507,17.284
				C169.702,70.441,169.455,75.708,170.113,80.993z"/>
			<path style="fill:#8B3021;" d="M171.558,59.309c0.645,4.341,1.226,8.676,1.523,13.053c0.294,4.34,1.061,8.547,1.779,12.831
				c0.387,2.296,0.97,7.741,3.396,8.966c0.154,0.08,0.321-0.051,0.431-0.154c1.549-1.476,2.183-3.361,2.911-5.302
				c0.145-0.386-0.299-0.093-0.388,0.087c-0.711,1.504-1.965,2.88-2.537,4.356c-0.094,0.237-1.938-3.916-2.054-4.268
				c-1.503-4.676-1.884-9.936-2.324-14.813c-0.397-4.425-0.873-8.733-1.502-13.128c-0.317-2.237-0.768-4.45-1.042-6.696
				c-0.222-1.782-0.875-4.16-0.786-5.936c0.007-0.146-0.234,0.074-0.246,0.151c-0.228,1.424,0.178,2.521,0.246,3.984
				C171.069,54.742,171.221,57.03,171.558,59.309z"/>
			<path style="fill:#8B3021;" d="M175.564,67.547c0.685,5.821,0.931,12.505,3.148,17.963c0.051,0.128,0.291-0.145,0.265-0.253
				c-1.469-5.624-1.601-11.486-2.145-17.246c-0.315-3.335-0.878-6.691-1.4-9.998c-0.467-2.925-1.246-6.776-0.594-9.692
				c0.056-0.251-0.282,0.036-0.315,0.153c-0.692,2.458-0.337,5.361-0.176,7.892C174.585,60.095,175.124,63.84,175.564,67.547z"/>
			<path style="fill:#8B3021;" d="M181.442,78.68c0.585-4.979,0.978-9.936,1.357-14.925c0.344-4.46,0.083-8.91,0.51-13.379
				c0.016-0.157-0.261,0.081-0.279,0.172c-1.572,9.271-1.951,19.012-1.978,28.416C181.049,79.205,181.424,78.814,181.442,78.68z"/>
			<path style="fill:#8B3021;" d="M177.845,60.913c0.161,0.358,0.732-0.402,0.729-0.613c-0.047-1.551-0.355-3.074-0.422-4.635
				c-0.074-1.663-0.679-3.606-0.449-5.257c0.033-0.227-0.257,0.033-0.282,0.14c-0.368,1.595-0.011,3.4-0.091,5.051
				C177.24,57.457,177.077,59.17,177.845,60.913z"/>
			<g>
				<path style="fill:#8B3021;" d="M199.667,86.061c-3.356,4.585-5.088,10.912-6.593,16.305c-1.04,3.728-1.634,7.564-2.825,11.254
					c-0.832,2.577-2.174,5.725-2.19,8.439c0,0.074,0.049,0.111,0.119,0.095c0.317-0.062,0.399-0.128,0.568-0.402
					c0.162-0.258-0.082-0.277-0.232-0.097c0.456-0.55,0.871-2.505,1.097-3.282c0.511-1.741,1.078-3.446,1.706-5.145
					c0.978-2.645,1.554-5.367,2.161-8.11c0.646-2.914,1.797-5.656,2.587-8.52c0.784-2.847,1.514-5.751,2.818-8.409
					c1.277-2.602,0.967-0.329,0.839,0.72c-0.171,1.44-0.386,2.871-0.6,4.31c-0.478,3.232-0.815,6.479-1.389,9.699
					c-0.501,2.835-0.46,5.738-0.985,8.581c-0.54,2.92-1.152,5.838-1.478,8.796c-0.024,0.249,0.413-0.131,0.44-0.269
					c0.654-3.372,1.436-6.707,2.181-10.056c0.646-2.898,0.626-5.936,0.996-8.871c0.432-3.423,0.711-6.86,1.155-10.279
					c0.158-1.203,0.966-3.928,0.042-4.963C199.975,85.735,199.719,85.99,199.667,86.061z"/>
				<g>
					<path style="fill:#4E291D;" d="M199.607,86.018c0,0,0.083-0.081,0.174-0.132c0.087-0.059,0.203-0.074,0.203-0.074
						c-0.014,0,0.044-0.052,0.114-0.063c0.024-0.01,0.047-0.018,0.064-0.024l0,0h0.003l0.036,0.028l0,0h0.002h0.004h0.004h0.011
						c0.006,0,0.009,0,0.009,0s-0.002,0-0.006-0.003l-0.002-0.008l-0.004-0.002h-0.003l-0.042-0.034l0,0l-0.002-0.004
						c-0.02-0.002-0.018-0.007-0.07-0.021c-0.203-0.037-0.241,0.051-0.314,0.099C199.676,85.886,199.607,86.018,199.607,86.018z"/>
					<path style="fill:#4E291D;" d="M199.998,87.187c0,0,0.025,0.156,0.04,0.313c0.011,0.161,0.023,0.322,0.023,0.322
						c0.245-0.173,0.33-0.143,0.399-0.186c0.06-0.056,0.141-0.17,0.261-0.753c-0.067-0.195-0.181-0.51-0.364-0.704
						c-0.17-0.202-0.364-0.258-0.398-0.162c0.168,0.137,0.489,0.455,0.476,0.874c-0.152-0.148-0.237-0.563-0.485-0.614
						c0.049,0.529,0.254,0.27,0.264,0.936L199.998,87.187z"/>
					<path style="fill:#4E291D;" d="M200.455,87.973c-0.075-0.069-0.153-0.14-0.223-0.133
						C200.313,87.907,200.381,88.248,200.455,87.973z"/>
					<path style="fill:#4E291D;" d="M200.46,88.394c-0.069,0.43-0.172-0.029-0.201,0.016c0,0,0.058,0.128,0.116,0.26
						c0.058,0.136,0.114,0.271,0.114,0.271s-0.005-0.14-0.012-0.274C200.471,88.531,200.46,88.394,200.46,88.394z"/>
					<path style="fill:#4E291D;" d="M200.139,90.178c-0.007,0.069-0.009,0.139-0.009,0.205
						C200.188,90.321,200.161,90.258,200.139,90.178z"/>
					<path style="fill:#4E291D;" d="M200.038,91.062c0.125-0.165,0.09-0.388,0.092-0.679c-0.009,0.008-0.014,0.01-0.025,0.021
						c-0.13,0.235-0.308-0.038-0.174-0.425c0.029-0.424,0.237-0.349,0.161-0.73l-0.264,0.459
						C199.728,90.361,199.971,90.805,200.038,91.062z"/>
					<path style="fill:#4E291D;" d="M200.139,90.178c0.004-0.072,0.013-0.155,0.029-0.234
						C200.111,90.038,200.118,90.111,200.139,90.178z"/>
					<polygon style="fill:#4E291D;" points="200.331,89.286 200.323,89.06 200.223,89.095 					"/>
					<path style="fill:#4E291D;" d="M199.891,92.545c-0.284-0.143,0.147-1.053-0.069-1.199c-0.051,0.583-0.317,1.022-0.464,0.873
						l0.018,0.656C199.462,93.106,199.712,92.859,199.891,92.545z"/>
					<path style="fill:#4E291D;" d="M199.004,93.711c0.018,0.044,0.029,0.095,0.033,0.15
						C199.033,93.791,199.026,93.729,199.004,93.711z"/>
					<path style="fill:#4E291D;" d="M199.143,97.035l-0.127-1.544c0.078,0.151,0.178,0.11,0.172,0.455
						c0.114-0.66-0.063-0.77,0.029-1.317c0.292-0.131-0.089,0.973,0.192,0.686c0.033-0.386,0.087-0.972-0.112-1.309l0.256-0.595
						l-0.323,0.173c-0.116,0.239,0.179,0.532-0.047,0.66c-0.138,0.062-0.134-0.191-0.145-0.375c0.018,0.409-0.357,1.061-0.409,1.872
						C198.564,96.594,199.06,96.455,199.143,97.035z"/>
					<polygon style="fill:#4E291D;" points="198.805,97.05 198.676,97.134 198.843,97.087 					"/>
					<path style="fill:#4E291D;" d="M199.013,98.745l-0.101-0.811c0.037-0.08,0.104-0.117,0.166-0.168
						c-0.074,0.02-0.167-0.202-0.228-0.178c-0.313,0.327-0.022,0.969-0.022,1.399c-0.246,1.096-0.141-0.069-0.444,0.33
						c0.042-0.313,0.107-0.317,0.176-0.746c-0.386,0.642-0.201,1.535-0.172,1.982c0.041-0.124,0.13-0.147,0.132-0.39l0.038,0.462
						C198.828,100.187,198.931,99.794,199.013,98.745z"/>
					<path style="fill:#4E291D;" d="M199.169,97.343c-0.016,0.294-0.046,0.4-0.087,0.419
						C199.161,97.695,199.228,97.604,199.169,97.343z"/>
					<path style="fill:#4E291D;" d="M198.37,100.788c0.02-0.042,0.026-0.123,0.018-0.234
						C198.37,100.606,198.359,100.675,198.37,100.788z"/>
					<path style="fill:#4E291D;" d="M198.743,100.385l-0.092,0.546l0.151-0.201C198.799,100.652,198.808,100.381,198.743,100.385z"
						/>
					<path style="fill:#4E291D;" d="M195.999,119.796c-0.06,0.018-0.109,0.074-0.152,0.18c-0.018,0.051-0.036,0.118-0.051,0.195
						c-0.007,0.04-0.014,0.081-0.022,0.127l-0.006,0.034v0.011v0.003l0,0c-0.112-0.025,0.249,0.063-0.251-0.059l0,0l0,0
						l-0.011,0.004l-0.067,0.022l-0.069,0.019c-0.011-0.007-0.025-0.007-0.036-0.002c-0.024,0.007-0.016,0.014-0.011-0.009
						c0.016,0.041-0.105-0.029,0.369-0.005c-0.009-0.061-0.011-0.141-0.007-0.231c0.005-0.178,0.019-0.38-0.004-0.512
						c-0.179,0.547-0.172-0.029-0.337,0.095c-0.025,0.156-0.038,0.291-0.04,0.416c0,0.063,0,0.125,0,0.184
						c0,0.024,0.002,0.065,0.016,0.069c0,0,0-0.007,0.02-0.02c0.076-0.047,0.152-0.145,0.216-0.237
						c0.016-0.022,0.031-0.047,0.038-0.067c0-0.002,0.006-0.031,0.013-0.072c0.015-0.074,0.034-0.145,0.056-0.228
						c0.033,0.042,0.1,0.042,0.167-0.033c0.083-0.81,0.236-2.182,0.529-2.931c0.217-0.733,0.268-1.297,0.38-2.136
						c0.634-2.682,1.234-5.488,1.607-8.419l-0.246-0.44c0.165-0.127,0.06-0.701,0.243-0.602c-0.051,0.158-0.029,0.316-0.047,0.507
						c0.31-0.608,0.109-1.678,0.263-2.429c-0.058,0.084-0.319,0.186-0.342-0.045c0.313,0.088,0.083-0.905,0.474-1.089
						c0.165-0.748-0.278-0.058-0.145-0.844c-0.183-0.11-0.17,0.748-0.329,0.877c-0.127-0.265,0.139-0.71-0.062-0.701
						c-0.105,0.631-0.145,1.567-0.112,2.557c0.031,1.002,0.061,2.077,0.009,3.043l-0.156-0.225c0.007,0.248,0.005,0.536-0.015,0.836
						c-0.025,0.3-0.081,0.609-0.139,0.91c-0.129,0.609-0.284,1.174-0.514,1.529c0.206-0.146-0.397,1.417,0.009,1.351
						c-0.139,0.228-0.143,0.305-0.248,0.648l0.098,0.118c-0.109,0.498-0.279,0.377-0.391,0.953c0.243-0.341,0.204,0.085,0.299,0.279
						c-0.324,0.616-0.646,1.347-0.92,1.897c0.063-0.036,0.134-0.074,0.246-0.26c-0.143,0.386,0.026,0.347,0.058,0.466
						c-0.074,0.384-0.275,0.301-0.373,0.256c-0.219,0.686,0.112,1.087-0.134,1.578l0.206-0.147c-0.114,0.73-0.431,1.3-0.545,2.106
						c-0.313,0.338-0.058-0.696-0.085-1.046c-0.081,0.15-0.17,0.493-0.268,0.587c0.02,0.181,0.04,0.423,0.059,0.676
						c0.006,0.125,0.013,0.254,0.022,0.377v0.016l0,0l0,0c-0.329-0.071,0.446,0.094,0.366,0.076h-0.004h-0.009l-0.022-0.007
						c-0.029-0.004-0.054-0.019-0.083-0.033c-0.074-0.027-0.129-0.069-0.198-0.114c0.006,0.004,0.006,0.021,0,0.037
						c-0.007,0.032-0.024,0.07-0.043,0.102c0.007-0.094-0.033-0.131-0.071-0.143c-0.02-0.007-0.044-0.007-0.065-0.007
						c-0.002,0-0.006-0.003-0.008-0.003h-0.005l0.051,0.077c0.065,0.11,0.128,0.246,0.148,0.334
						c0.006,0.051,0.002,0.078,0.002,0.081c-0.011,0.007,0.024-0.011,0.069-0.002l0.087-0.031l0.024-0.007h0.009l0.007-0.004l0,0
						c-0.078-0.014,0.701,0.141,0.371,0.074h0.002v-0.015l0.013-0.048c0.011-0.064,0.027-0.133,0.036-0.193
						C195.965,119.976,195.986,119.862,195.999,119.796z"/>
					<path style="fill:#4E291D;" d="M195.182,118.863c-0.016-0.11-0.026-0.198-0.04-0.249c-0.005,0.077-0.005,0.154-0.042,0.27
						C195.128,118.9,195.155,118.886,195.182,118.863z"/>
					<path style="fill:#4E291D;" d="M195.999,119.796c0.011-0.002,0.021-0.01,0.029-0.016
						C196.026,119.701,196.017,119.722,195.999,119.796z"/>
					<path style="fill:#4E291D;" d="M196.394,116.649c-0.011,0.031-0.025,0.066-0.036,0.098c-0.011,0.048-0.022,0.084-0.033,0.133
						L196.394,116.649z"/>
					<path style="fill:#4E291D;" d="M195.765,115.893c0.094-0.138,0.201-0.342,0.312-0.569
						C195.986,115.375,195.914,115.419,195.765,115.893z"/>
					<path style="fill:#4E291D;" d="M197.008,111.076c0.002-0.159-0.067-0.083-0.101-0.199
						C196.836,111.182,196.87,111.3,197.008,111.076z"/>
					<path style="fill:#4E291D;" d="M194.95,119.727c0,0-0.005,0.036-0.016,0.096v0.021l-0.002,0.011v0.008l0,0
						c1.393,0.294,0.386,0.084,0.696,0.146h-0.002h-0.002h-0.005l-0.013-0.004c-0.053-0.011-0.124-0.051-0.212-0.095
						c-0.074-0.051-0.168-0.103-0.239-0.168l-0.107-0.081c-0.027-0.027-0.007-0.008-0.014-0.011
						c0.004,0.022-0.034,0.022-0.004,0.059c0.155,0.215,0.239,0.392,0.232,0.385c0-0.009,0.029,0.064,0.049,0.131
						c0.029,0.081-0.011,0.128,0.025,0.104c0.013-0.009,0.022,0,0.04,0.002l0.074-0.026l0.038-0.008l0.016-0.007l0.006-0.004h0.007
						l0.474,0.085l0,0l0,0l0,0v-0.019c-0.003-0.022-0.003-0.038-0.003-0.038s0,0.016-0.002,0.038v0.011v0.003v0.004l0,0
						l-0.469-0.085l0,0l0,0l-0.007,0.004c-0.024,0.007-0.054,0.015-0.082,0.022c-0.031,0.012-0.067,0.023-0.074,0.012
						c-0.018-0.004-0.042,0.014-0.033,0.007c0.023,0.011-0.016-0.204-0.147-0.408l-0.094-0.15l-0.052-0.069c0,0,0,0,0-0.003
						s0-0.009,0.005-0.015l0.009-0.021v-0.008c0-0.007-0.011-0.01,0.051,0.041c0.089,0.065,0.206,0.153,0.302,0.212
						c0.044,0.029,0.106,0.052,0.143,0.073c0.016,0.009,0.038,0.015,0.056,0.022l0.028,0.004h0.005h0.002
						c0.15,0.032-1.315-0.276-0.694-0.144l0,0v-0.003v-0.004C194.943,119.777,194.95,119.727,194.95,119.727z"/>
					<path style="fill:#4E291D;" d="M197.037,108.683c-0.237,0.524-0.237,1.325-0.371,1.981c-0.079,1.232,0.436,0.234,0.253,1.395
						l-0.373-0.275c-0.192,1.154-0.581,2.774-0.402,3.815c-0.067,0.078-0.168,0.268-0.172-0.042
						c-0.12,0.771,0.523,0.505,0.228,1.507c-0.114-1.002-0.288,0.27-0.507-0.03l-0.004-0.159c-0.074,0.661-0.065,1.549-0.148,1.98
						c0.107,0.029,0.324-0.324,0.253,0.251c0.054-0.231,0.161-0.119,0.266-0.087c-0.031-0.608,0.089-0.922,0.005-1.303
						c0.189-0.308,0.013,0.23,0.201-0.082l-0.061-0.494c0.085-0.348,0.085,0.381,0.196-0.157c-0.071-0.078-0.094-0.536-0.013-0.962
						l0.029,0.132c-0.007-0.338,0.159-0.789-0.103-0.672l0.299-0.344l-0.168,0.041c0.228-0.89,0.663-1.156,0.686-2.35
						c-0.098,0.267-0.136-0.003-0.139-0.156c-0.196,0.463,0.007,0.62-0.056,1.078c-0.169,0.041-0.209-0.771-0.411-0.231
						c0.303-0.575,0.192-1.156,0.634-1.346c0.167-0.726,0-1.052,0.203-1.798l0.056,0.03c-0.246-0.175,0.216-0.609,0.009-1.203
						c0,0-0.022,0.098-0.049,0.198c-0.029,0.099-0.058,0.195-0.058,0.195c-0.103-0.031-0.074-0.224-0.074-0.5
						c0.04,0.036,0.04,0.036,0.098-0.045c-0.18-0.106-0.133-0.961-0.178-1.071c-0.067,0.351,0.049,0.808,0.058,1.232
						C197.135,108.987,196.97,109.036,197.037,108.683z"/>
					<path style="fill:#4E291D;" d="M196.473,116.406l-0.056-0.253C196.419,116.252,196.432,116.348,196.473,116.406z"/>
					<path style="fill:#4E291D;" d="M197.671,105.34c0.087-0.468,0.148,0.144,0.277-0.285c-0.074-0.495-0.331,0.518-0.474,0.034
						c0.149-0.28,0.021-0.775,0.043-0.97c0.08,0.229,0.347,0.141,0.413,0.058c-0.048-0.186,0.13-0.575,0.181-0.878
						c-0.259,0.728-0.006-0.653-0.268,0.002c-0.143-0.077-0.145-0.814,0.013-1.085c0.102,0.04,0.045,0.271,0.022,0.466
						c0.174,0.194,0.179-0.466,0.379-0.547c-0.172-0.778,0.199-3.101-0.35-2.506c-0.126,0.235-0.047,0.462-0.07,0.735
						c0.204-0.736,0.239,0.033,0.311,0.109c-0.121,0.312-0.063,0.887-0.206,0.738l-0.091-0.541
						c-0.163,0.815-0.331,1.771-0.462,2.789c-0.063,0.507-0.126,1.02-0.188,1.526c-0.031,0.509-0.063,1.009-0.091,1.485l0.08-0.821
						c0.117,0.105,0.089,0.5,0.121,0.803l0.335-0.373c-0.044,0.234-0.018,0.464-0.125,0.435c0.101,0.302,0.19,0.177,0.311,0.011
						c-0.005,0.616-0.132,0.704,0.02,1.2c0.342-1.006-0.125-0.88,0.194-2.024L197.671,105.34z"/>
					<polygon style="fill:#4E291D;" points="197.635,107.587 197.506,107.326 197.546,107.709 					"/>
					<path style="fill:#4E291D;" d="M197.01,107.14c0.067-0.004,0.083,0.149,0.15,0.142
						C197.247,106.809,197.151,106.856,197.01,107.14z"/>
					<path style="fill:#4E291D;" d="M198.365,101.511l0.041-0.616l-0.118,0.385C198.355,101.28,198.359,101.435,198.365,101.511z"/>
					<path style="fill:#4E291D;" d="M198.22,97.115c-0.083,0.852,0.003,1.233-0.294,2.168c0.125,0.495,0.4-0.168,0.543,0.059
						c0.116-0.468-0.219-0.457-0.213-0.953c0.199-0.161,0.067-0.73,0.17-1.197C198.346,97.243,198.27,97.233,198.22,97.115z"/>
					<path style="fill:#4E291D;" d="M199.258,94.283c0.056-0.389-0.024-0.788,0.101-1.102c0.098,0.074,0.104,0.303,0.047,0.536
						c0.259-0.124,0.018-0.385,0.241-0.938c-0.029,0.051-0.095,0.238-0.13,0.098c0.107-0.63,0.078-0.798,0.063-0.989
						c-0.011-0.202-0.011-0.412,0.161-1.266c-0.04-0.151-0.013-0.364-0.183-0.115c0.185-0.601,0.234-0.759,0.292-0.945
						c0.067-0.216,0.134-0.433,0.297-1.19c-0.045,0.116-0.148,0.372-0.257,0.652c-0.059,0.13-0.114,0.262-0.168,0.391
						c-0.056,0.119-0.113,0.236-0.188,0.368c0.286-0.999,0.279-1.291,0.293-1.519c0-0.221,0.031-0.423,0.071-0.958
						c0.007,0.073,0.042,0.092,0.024,0.333c0.089-0.289,0.069-0.387,0.027-0.512c-0.022-0.059-0.044-0.128-0.1-0.213
						c-0.023-0.036-0.087-0.088-0.149-0.059c-0.059,0.023-0.099,0.059-0.134,0.084l0.089-0.286c-0.148,0.094-0.302,0.321-0.46,0.565
						c-0.078,0.122-0.154,0.239-0.224,0.332c-0.074,0.123-0.143,0.233-0.207,0.285l0.085-0.374
						c-0.326,0.785-0.622,1.441-0.918,2.062c-0.272,0.634-0.462,1.284-0.621,1.826l-0.33,0.48c-0.099,0.408-0.083,0.478-0.052,0.442
						c0.027-0.03,0.121-0.229,0.208-0.411c0.183-0.394,0.368-0.734,0.351-0.152c-0.206-0.069-0.244,0.143-0.264,0.412
						c-0.027,0.267,0,0.589-0.196,0.919c-0.261,0.288,0.128-0.739-0.174-0.428c0.167,0.224-0.049,0.396-0.099,0.791
						c-0.181-0.138-0.259,0.787-0.422,0.486l0.006,1.438c-0.176,0.184-0.261,0.575-0.31,0.865c0.201-0.715,0.252,0.284,0.569-0.499
						c0.107-0.597,0.283-1.393,0.511-2.211c0.112-0.404,0.229-0.84,0.359-1.217c0.132-0.362,0.268-0.706,0.398-0.991
						c-0.08-0.222,0-0.452,0.082-0.672c0.081-0.228,0.177-0.411,0.179-0.726c0.051,0.117,0.121,0.197,0.159,0.367
						c0.132-0.392,0.12-0.477,0.058-0.466c-0.054,0.011-0.166,0.11-0.134-0.085c0.081-0.219,0.172-0.38,0.226-0.344
						c0.054,0.019,0.071,0.168,0.065,0.334c0.209-0.436,0.029-0.308,0.185-1.063c0.004-0.037,0.032,0.133,0.038,0.33
						c0.013,0.197,0.004,0.436,0.004,0.436c0.083-0.209,0.179-0.441,0.299-0.685c0.058-0.127,0.123-0.254,0.206-0.376
						c0.044-0.058,0.089-0.124,0.153-0.151c0.065-0.014,0.09,0.037,0.108,0.071c0.1,0.311,0.056,0.705,0.02,1.213
						c-0.1,1.035-0.284,2.407-0.529,3.505c0,0.007,0.23-0.2,0.23-0.2c-0.264,1.12,0.188,1.945-0.373,2.877l0.123,0.367
						c-0.072-0.202-0.326,0.151-0.42-0.164c0.027,0.318-0.092,0.63-0.073,0.952l0.169-0.545c0.116,0.419-0.049,0.836-0.214,0.945
						c0.086,0.863,0.415-0.451,0.605-0.612c-0.208-1.229,0.522-1.134,0.52-2.285C199.534,93.579,199.359,94.342,199.258,94.283z"/>
					<path style="fill:#4E291D;" d="M198.515,95.664c0.007,0.076,0.019,0.134,0.032,0.176
						C198.542,95.78,198.531,95.722,198.515,95.664z"/>
					<path style="fill:#4E291D;" d="M196.03,96.191c-0.023,0.085-0.049,0.187-0.076,0.327
						C195.972,96.638,195.986,96.455,196.03,96.191z"/>
					<polygon style="fill:#4E291D;" points="198.426,97.192 198.428,97.192 198.428,97.186 					"/>
					<polygon style="fill:#4E291D;" points="198.839,97.82 198.886,97.513 198.788,97.552 					"/>
					<path style="fill:#4E291D;" d="M194.814,99.298l0.101,0.034C194.889,99.295,194.865,99.273,194.814,99.298z"/>
					<path style="fill:#4E291D;" d="M192.348,108.02l0.051-0.188C192.371,107.883,192.355,107.954,192.348,108.02z"/>
					<path style="fill:#4E291D;" d="M189.6,116.263c0.125-0.576,0.328-1.338,0.306-1.805l0.087,0.074
						c0.051-0.32,0.212-1.337-0.174-0.775l0.041,0.18c-0.092,0.755-0.34,0.455-0.597,0.988c-0.185,0.677,0.063,1.195-0.227,1.752
						c-0.074,0.266-0.161,0.191-0.212,0.088c-0.219,0.595-0.011,0.917-0.087,1.343c-0.399-0.028-0.507,0.453-0.543,1.046
						c-0.061,0.588-0.041,1.265-0.357,1.698c-0.011,0.305-0.022,0.656-0.036,1.028l-0.004,0.14v0.037l0.004,0.059v0.002l0.003,0.007
						l0.004,0.019l0.004,0.018c0.009,0.026,0.021,0.059,0.038,0.086c0.033,0.058,0.085,0.107,0.125,0.123
						c0.192,0.092,0.313,0.006,0.333,0.011l0.129-0.047c0.131-0.061,0.25-0.141,0.321-0.247c0.074-0.106,0.101-0.175,0.15-0.304
						c-0.018,0.118-0.007,0.132,0.011,0.132c0.018-0.011,0.013,0.016,0.058-0.054c0.014-0.018,0.029-0.045,0.045-0.074
						c0.007,0.004,0.033-0.081,0.038-0.13c0.011-0.043,0.011-0.124-0.038-0.22c-0.031-0.08-0.139-0.141-0.221-0.164
						c-0.054-0.011-0.136-0.011-0.177,0c-0.181,0.044-0.259,0.132-0.341,0.193l0.464,0.379c0.059-0.058,0.11-0.079,0.124-0.002
						c-0.083-0.255,0.194-0.721,0.391-1.23c0.197-0.498,0.35-1.002,0.083-1.141c0.42-0.935-0.033-0.056,0.411-1.141
						c0.06,0.022,0.006,0.207-0.005,0.286c0.244-0.408-0.018-0.748,0.353-1.035c0.337-0.872-0.1-0.198-0.078-0.766
						c0.373-0.911,0.363-0.624,0.761-1.058c-0.236-0.169,0.072-0.678,0.085-1.178c-0.049,0.107-0.31,0.719-0.274,0.271
						c0.4-1.061,0.112-0.924,0.378-1.955c0.457-0.404-0.324,1.005,0.199,0.206c-0.078,0.686-0.252,1.166-0.149,1.578
						c0.294-0.845,0.596-1.906,0.783-2.88c0.212-0.507,0.052,0.312,0.212-0.093c0.435-0.891,0.109-1.531,0.456-2.241l0.111,0.197
						c-0.065-0.509,0.454-1.665,0.552-2.569c-0.103,0.093-0.172,0.156-0.197,0.027c0.389,0.103,0.067-1.274,0.543-2.08
						c-0.268,0.013-0.183-0.861-0.07-1.41c0.116-0.173,0.208-0.104,0.273-0.081c-0.376,0.833,0.044,0.915-0.018,1.622
						c0.022-0.602,0.402-1.504,0.353-2.051l0.141,0.249c0.239-0.778-0.226-0.814,0.209-1.577l0.114,0.125
						c0.493-1.644,1.409-3.49,1.471-4.912c-0.08-0.147-0.551,0.436-0.654,0.445c-0.134,0.806-0.069,1.327-0.172,1.955l-0.216-0.077
						c0.103,0.186-0.045,0.931,0.203,0.572c-0.049,0.525-0.313,0.305-0.376,0.905c-0.212-0.119-0.125-0.461-0.313-0.53l-0.049,0.525
						c-0.04-0.184-0.171,0.271-0.212,0.092c-0.006,0.998-0.524,1.232-0.672,2.226c0,0,0.044-0.133,0.089-0.263
						c0.053-0.129,0.105-0.257,0.105-0.257c0.123,0.044,0.016,0.342-0.004,0.582c-0.248,0.209-0.266,0.371-0.471,0.848
						c-0.009,0.451,0.149,0.741,0.018,1.313c-0.221-0.175-0.344,0.921-0.576,0.983c0.221,0.176-0.164,1.127-0.042,1.236
						c-0.025,0.316-0.149,0.73-0.277,0.694c0.004-0.049,0-0.144,0.011-0.239l-0.08,0.301c-0.022-0.037-0.042-0.033-0.04-0.069
						c-0.071,0.269,0.107,0.318-0.098,0.634c-0.065-0.019-0.018-0.206-0.007-0.368c-0.204,0.711,0.038,1.35-0.337,1.881
						c0.083,0.147-0.134,0.977,0.169,0.874c-0.165,0.194-0.339,0.052-0.502,0.652c0.103,0.409-0.297,0.633-0.308,1.126
						c-0.025-0.678-0.063-0.026-0.103-0.623c-0.217,0.361-0.134,1.075-0.406,1.768c-0.076,0.056-0.139,0.031-0.214,0.088
						c-0.014,0.29,0.063,0.653-0.201,0.849l0.165,0.018c-0.239,0.46-0.415,1.146-0.752,1.611l0.091,0.693
						c-0.288,0.358-0.467,0.829-0.516,1.319c-0.056,0.478-0.036,0.951,0.007,1.314c-0.101,0.298-0.302,0.727-0.367,0.697
						c0-0.073,0-0.201,0.003-0.352c-0.154,0.448-0.498,0.836-0.429,1.146v0.003c0.1,0.08,0.143,0.116,0.183,0.15
						c0.036-0.084,0.116-0.091,0.114-0.084c0-0.043,0.031-0.052-0.002-0.037c0,0-0.089,0.003-0.103-0.011
						c-0.007-0.048-0.071,0.011-0.111,0.027c-0.016-0.033-0.083,0.028-0.121,0.069c-0.011,0.047-0.016,0.065-0.028,0.109
						c-0.029,0.016-0.005,0.051-0.092,0.076l-0.102,0.038l-0.027,0.012l-0.011,0.002h-0.004l0,0l0.026,0.056v0.002l0.005,0.009
						c0.009,0.021-0.005,0.065,0,0.065c-0.016,0.019,0,0.009,0.009,0.019c0,0.01,0.021-0.019,0.032-0.026l0.015-0.018l0.009-0.007
						l0.002-0.004h0.002c0.025,0.013-0.058-0.034,0.058,0.033v-0.004l0.007-0.114c0.02-0.305,0.063-0.627,0.107-0.924
						c0.138-0.594,0.229-1.105,0.011-1.302c-0.054,0.187-0.121,0.461-0.194,0.781c-0.038,0.16-0.074,0.33-0.111,0.506
						c-0.021,0.179-0.034,0.367-0.038,0.554c-0.056-0.202-0.172-0.055-0.168-0.337c0.007-0.382,0.125-0.658,0.194-0.933
						c0.076-0.28,0.163-0.547,0.208-0.924l0.316,0.164C189.223,118.399,188.805,117.059,189.6,116.263z"/>
					<path style="fill:#4E291D;" d="M189.029,119.664l-0.315,0.463l0.16-0.011C188.901,119.953,188.941,119.789,189.029,119.664z"/>
					<path style="fill:#4E291D;" d="M188.874,120.116c-0.017,0.109-0.022,0.22-0.022,0.318c0.038-0.11,0.063-0.219,0.063-0.318
						H188.874z"/>
					<path style="fill:#4E291D;" d="M190.243,114.209c0.051-0.11,0.154-0.324,0.192-0.562
						C190.346,113.782,190.232,114.075,190.243,114.209z"/>
					<polygon style="fill:#4E291D;" points="190.341,113.574 190.205,113.816 190.232,113.868 					"/>
					<path style="fill:#4E291D;" d="M194.032,98.188l0.056-0.897c0.149-0.112,0.319-1.093,0.399-0.733
						c-0.096-0.571,0.518-1.566,0.038-1.285c-0.699,2.48-1.894,5.791-2.295,8.753l-0.025-0.497c-0.106,1.566-0.814,1.98-0.531,3.313
						l-0.249-0.227c-0.236,0.666,0.114,1.408-0.357,2.046l0.134-0.045c-0.045,0.187-0.116,0.251-0.161,0.442l0.069-0.063
						c-0.002,0.524-0.089,0.825-0.283,1.294c-0.1,0.012,0.015-0.237,0.026-0.397c-0.149,0.203-0.035,0.641-0.143,1.014
						c-0.163,0.276-0.127-0.037-0.156-0.087c-0.196,1.158-0.636,1.58-0.446,2.505c0.053,0.103,0.225-0.249,0.145,0.176
						c0.344-0.705,0.353-1.366,0.433-2.078l-0.056,0.191c-0.264-0.648,0.229-0.378,0.258-1.304c0.114,0.274,0.02,0.656,0.061,0.829
						c0.583-0.933,0.112-1.508,0.683-2.08l-0.004,0.076c0.074-0.143,0.06-0.43,0.078-0.667c-0.071,0.062-0.152,0.282-0.23,0.425
						c0.02-0.239-0.134-0.399-0.194-0.496c0.246-0.221-0.006-0.363,0.181-0.759c0.203-0.111,0.076,0.382,0.13,0.558l-0.002-0.525
						c0.096-0.462,0.29-0.412,0.433-0.617c-0.042-0.413-0.143,0.205-0.254-0.146c0.16-0.223,0.346-0.861,0.498-1.574
						c0.163-0.711,0.308-1.493,0.353-2.014c-0.067,0.353,0.147,0.168,0.013,0.58c0.076-0.144,0.128-0.697-0.002-0.734
						c0.051-0.727,0.377-1.566,0.677-2.171l-0.183,0.149c-0.065-0.599,0.542-1.307,0.694-2.285l-0.009,0.019
						c0.065-0.314-0.183-0.669,0.058-1.203C193.974,97.875,193.869,98.172,194.032,98.188z"/>
					<path style="fill:#4E291D;" d="M194.807,94.79l0.069,0.363c0.154-0.318,0.074-0.813-0.063-0.78
						c-0.04,0.233-0.224,0.506-0.136,0.582C194.718,94.924,194.775,94.948,194.807,94.79z"/>
					<path style="fill:#4E291D;" d="M197.401,88.667c0.024-0.135-0.054-0.143-0.074-0.217c-0.16,0.319-0.335,0.653-0.509,0.987
						c-0.149,0.342-0.298,0.679-0.437,0.99c-0.281,0.623-0.552,1.141-0.708,1.381c-0.228,0.421,0,0.61-0.156,1.185l-0.275,0.183
						c-0.02,0.336-0.532,1.197-0.127,0.977c0.04-0.027-0.051-0.321,0.102-0.559l0.083,0.081l0.199-0.603l0.049,0.235
						c0.494-0.734-0.152-0.712,0.355-1.655l0.246,0.11c0.301-0.646,0.372-1.004,0.779-1.505c0,0-0.121-0.062-0.121,0.066
						c-0.062,0.103-0.223,0.199-0.261,0.092c0.261-1.07,0.076,0.218,0.484-0.417c0.092-0.461,0.369-1.07,0.623-1.637
						c0.132-0.279,0.27-0.539,0.402-0.754c0.15-0.202,0.288-0.361,0.406-0.437c-0.379,0.277-0.165-0.356,0.134-0.786
						c0.21-0.143,0.04,0.227,0.062,0.341c0.157-0.184,0.322-0.309,0.42-0.531c-0.295,0.175-0.347-0.107-0.103-0.641
						C198.145,86.517,197.978,87.587,197.401,88.667z"/>
					<path style="fill:#4E291D;" d="M197.378,88.233c-0.053,0.118-0.06,0.177-0.051,0.217c0.081-0.147,0.161-0.296,0.235-0.437
						L197.378,88.233z"/>
				</g>
			</g>
			<path style="fill:#8B3021;" d="M198.241,73.302c-1.507,4.262-2.014,8.753-2.97,13.155c-1.009,4.66-2.351,9.225-3.407,13.873
				c-0.04,0.172,0.197-0.022,0.221-0.107c2.695-9.708,4.633-19.764,7.922-29.279c1.422-4.12,1.855-8.52,3.034-12.708
				c1.17-4.168,3.248-8.374,3.826-12.676c0.025-0.18-0.303,0.084-0.321,0.194c-0.768,4.417-3.146,8.713-4.524,12.983
				C200.482,63.533,199.929,68.537,198.241,73.302z"/>
			<path style="fill:#8B3021;" d="M196.289,98.278c-1.679,7.496-3.644,14.632-4.425,22.325c-0.051,0.518,0.781-0.297,0.844-0.518
				c1.168-4.061,1.232-8.352,2.146-12.477c0.706-3.173,1.414-6.309,1.775-9.537C196.653,97.871,196.314,98.175,196.289,98.278z"/>
			<path style="fill:#8B3021;" d="M202.577,75.082c0.227-6.138,2.313-12.082,3.795-18.029c1.096-4.392,3.751-9.322,3.67-13.879
				c0-0.041-0.026-0.063-0.069-0.055c-0.046,0.011-0.096,0.018-0.143,0.03c-0.099,0.021-0.183,0.143-0.192,0.238
				c-0.003,0.045-0.007,0.092-0.01,0.133c-0.013,0.138,0.219-0.07,0.235-0.144c-1.004,5.166-3.273,10.104-4.592,15.214
				c-1.366,5.274-3.367,10.621-3.566,16.081c-0.207,5.715,0.646,11.251,0.74,16.941c0.089,5.119-0.853,10.648-1.44,15.735
				c-0.034,0.299,0.466-0.161,0.5-0.308c1.219-4.869,1.25-10.092,1.688-15.067C203.686,86.381,202.369,80.717,202.577,75.082z"/>
			<path style="fill:#8B3021;" d="M212.807,79.88c0.594-3.186,0.969-6.401,1.576-9.584c0.571-2.997,1.431-6.211,1.239-9.28
				c-0.196-3.182,0.067-5.824,0.647-8.976c0.4-2.168,1.344-4.622,0.828-6.827c-0.029-0.131-0.313,0.143-0.297,0.253
				c0.36,2.803-1.081,6.44-1.797,9.133c-0.633,2.388-0.598,4.681-0.346,7.121c0.337,3.246-0.904,7.063-1.518,10.253
				c-0.694,3.609-1.148,7.259-1.831,10.869c-1.186,6.27-2.077,12.638-3.653,18.823c-1.456,5.716-3.135,11.628-3.731,17.504
				c-0.024,0.243,0.415-0.146,0.436-0.313c0.739-6.33,2.92-12.564,4.517-18.716C210.594,93.509,211.554,86.608,212.807,79.88z"/>
			<path style="fill:#8B3021;" d="M217.073,80.845c1.741-6.275,3.675-12.497,5.731-18.67c1.257-3.772,2.472-7.547,3.789-11.298
				c0.741-2.112,1.797-4.893,1.496-7.147c-0.041-0.324-0.485,0.2-0.499,0.365c-0.477,6.179-3.684,12.659-5.658,18.508
				c-2.079,6.165-4.072,12.391-5.742,18.679c-1.746,6.559-2.657,13.299-4.097,19.929c-1.443,6.639-3.497,13.111-4.758,19.803
				c-0.049,0.268,0.303-0.037,0.337-0.164c1.742-6.692,3.557-13.37,5.283-20.065C214.651,94.201,215.253,87.4,217.073,80.845z"/>
			<path style="fill:#8B3021;" d="M216.899,70.055c0.112,0.26,0.485-0.109,0.567-0.206c2.469-2.885,3.204-8.237,4.142-11.816
				c1.331-5.087,2.746-10.339,3.829-15.475c0.052-0.254-0.281,0.038-0.314,0.154c-1.105,3.872-2.559,7.583-3.452,11.531
				c-1.036,4.579-2.208,9.084-3.767,13.523c-1.127,3.203-0.835-2.751-0.825-3.58c0.033-2.744,0.566-5.493,1.011-8.193
				c0.684-4.185,1.819-8.28,2.271-12.503c0.041-0.397-0.701,0.231-0.73,0.531c-0.478,4.926-1.766,9.752-2.458,14.657
				C216.703,62.006,215.562,66.849,216.899,70.055z"/>
			<path style="fill:#8B3021;" d="M221.729,73.025c0.105-0.263-0.205-0.058-0.263,0.061c-3.702,7.368-4.733,16.262-6.451,24.235
				c-0.94,4.355-1.853,8.744-2.579,13.139c-0.643,3.891-1.424,8.395-1.128,12.333c0.035,0.474,0.69-0.293,0.721-0.52
				c1.029-8.192,1.976-16.312,3.74-24.394C217.556,89.709,218.621,80.831,221.729,73.025z"/>
			<path style="fill:#8B3021;" d="M222.345,97.934c1.436-6.714,3.155-13.326,5.084-19.914c1.842-6.293,2.652-12.987,3.887-19.425
				c0.651-3.403,1.013-6.843,1.741-10.23c0.6-2.773,1.196-5.527,1.297-8.371c0.007-0.129-0.203,0.062-0.214,0.128
				c-0.877,6.333-2.645,12.577-3.688,18.897c-1.067,6.451-2.206,13.137-3.919,19.446c-1.779,6.565-3.407,13.141-4.843,19.796
				c-0.766,3.556-1.188,7.111-2.21,10.617c-0.837,2.876-1.96,5.783-2.092,8.798c-0.018,0.425,0.681-0.217,0.717-0.439
				c0.478-2.972,1.315-5.86,2.159-8.747C221.28,105.008,221.59,101.462,222.345,97.934z"/>
			<path style="fill:#8B3021;" d="M241.74,41.768c0.04-0.208-0.234,0.027-0.259,0.129c-0.859,3.654-2.462,7.147-3.503,10.76
				c-1.148,3.985-1.92,8.054-2.822,12.097c-1.556,6.97-4.414,13.694-5.157,20.809c-0.032,0.286,0.444-0.155,0.479-0.293
				c1.706-7.043,3.995-13.882,5.58-20.962c0.81-3.623,1.549-7.254,2.388-10.868C239.362,49.503,241.017,45.745,241.74,41.768z"/>
			<path style="fill:#8B3021;" d="M231.704,71.397c-0.565,4.642-2.583,9.199-3.702,13.733c-1.041,4.215-2.195,8.337-2.958,12.62
				c-0.108,0.623,0.717-0.08,0.788-0.39c1.047-4.61,2.222-9.164,3.331-13.756c0.985-4.076,2.742-8.175,2.823-12.412
				C231.99,71.019,231.715,71.298,231.704,71.397z"/>
		</g>
		<g>
			<g>
				<g>
					<path style="fill:#A39E97;" d="M248.199,28.719L16.44,28.543l4.068,14.767c13.338,6.296,59.012,10.932,113.316,10.932
						c54.238,0,99.868-4.626,113.268-10.91l4.159-15.141L248.199,28.719z"/>
				</g>
				<path style="opacity:0.4;fill:#ABADB0;" d="M92.019,28.598l-21.392-0.016c0.022,0.2,0.044,0.396,0.069,0.599
					c0.946,7.689,2.072,15.354,3.304,22.998c6.374,0.478,13.139,0.878,20.219,1.197C93.472,45.118,92.734,36.86,92.019,28.598z"/>
				<g>
					<path style="opacity:0.3;fill:#ABADB0;" d="M248.199,28.719l-60.448-0.047c-0.081,0.905-0.161,1.805-0.25,2.711
						c-0.696,7.139-1.558,14.26-2.442,21.381c30.217-1.849,53.171-5.276,62.033-9.432l4.159-15.141L248.199,28.719z"/>
					<path style="opacity:0.4;fill:#ABADB0;" d="M248.199,28.719l-11.416-0.007c-1.081,3.473-2.415,6.867-3.36,10.385
						c-0.764,2.847-1.398,5.72-2.066,8.588c7.011-1.316,12.381-2.779,15.734-4.353l4.159-15.141L248.199,28.719z"/>
					<path style="opacity:0.5;fill:#ABADB0;" d="M23.843,28.546l-7.403-0.004l4.068,14.767c1.86,0.876,4.352,1.725,7.404,2.528
						C26.578,40.071,25.232,34.303,23.843,28.546z"/>
				</g>
				<g>
					<linearGradient id="SVGID_1_" gradientUnits="userSpaceOnUse" x1="21.3667" y1="112.5567" x2="258.9869" y2="129.8498">
						<stop  offset="0" style="stop-color:#C5C7C8"/>
						<stop  offset="0.0817" style="stop-color:#9FA1A1"/>
						<stop  offset="0.1873" style="stop-color:#757677"/>
						<stop  offset="0.2985" style="stop-color:#515252"/>
						<stop  offset="0.4142" style="stop-color:#333434"/>
						<stop  offset="0.5358" style="stop-color:#1D1D1D"/>
						<stop  offset="0.666" style="stop-color:#0D0D0D"/>
						<stop  offset="0.811" style="stop-color:#030303"/>
						<stop  offset="1" style="stop-color:#000000"/>
						<stop  offset="1" style="stop-color:#272628"/>
					</linearGradient>
					<path style="fill:url(#SVGID_1_);" d="M40.767,113.166l-0.918,0.368l2.712,8.277c0,6.333,40.861,11.464,91.266,11.464
						c50.407,0,91.27-5.131,91.27-11.464l2.701-8.273l-0.864-0.341c-9.248,5.452-46.94,9.072-93.107,9.072
						C87.651,122.268,50.001,118.623,40.767,113.166z"/>
				</g>
				<path style="fill:#434648;" d="M133.646,100.377c-56.237,0-88.385-4.306-98.589-7.968l-0.92,0.388l3.247,10.664
					c5.243,1.263,11.9,2.408,19.88,3.411c20.438,2.567,47.565,3.979,76.382,3.979c28.815,0,55.942-1.412,76.382-3.979
					c8.172-1.028,14.962-2.203,20.258-3.5l3.252-10.715l-0.922-0.38C222.876,95.949,190.603,100.377,133.646,100.377z"/>
				<g>
					<path style="fill:#A39E97;" d="M39.849,113.533l2.712,9.836c0,6.33,40.861,11.465,91.266,11.465
						c50.407,0,91.27-5.135,91.27-11.465l2.701-9.832c-9.245,5.451-47.804,9.542-93.971,9.542
						C87.651,123.079,49.084,118.988,39.849,113.533z"/>
					<path style="opacity:0.4;fill:#ABADB0;" d="M101.911,124.43c-0.094-0.682-0.188-1.366-0.281-2.047
						c-5.481-0.246-10.737-0.552-15.711-0.91c0.599,3.922,1.163,7.848,1.686,11.781c4.89,0.364,10.069,0.669,15.485,0.908
						C102.737,130.916,102.34,127.668,101.911,124.43z"/>
				</g>
				<g>
					<path style="opacity:0.5;fill:#ABADB0;" d="M45.737,115.835c-2.545-0.731-4.535-1.502-5.888-2.302l2.712,9.836
						c0,1.501,2.3,2.937,6.478,4.249C47.947,123.689,46.842,119.76,45.737,115.835z"/>
					<path style="opacity:0.3;fill:#ABADB0;" d="M177.604,121.759c-0.455,3.925-0.936,7.85-1.451,11.769
						c29.096-1.919,48.945-5.748,48.945-10.159l2.701-9.832C221.71,117.128,202.915,120.128,177.604,121.759z"/>
					<path style="opacity:0.4;fill:#ABADB0;" d="M210.754,129.536c9.074-1.78,14.343-3.896,14.343-6.167l2.701-9.832
						c-2.596,1.531-7.513,2.952-14.251,4.212C212.642,121.681,211.715,125.615,210.754,129.536z"/>
				</g>
				<path style="fill:#A39E97;" d="M133.646,101.497c-56.237,0-89.305-5.038-99.509-8.7l3.247,11.785
					c5.243,1.262,11.9,2.406,19.88,3.412c20.438,2.569,47.565,3.981,76.382,3.981c28.815,0,55.942-1.412,76.382-3.981
					c8.172-1.026,14.962-2.206,20.258-3.504l3.252-11.832C223.798,96.327,190.603,101.497,133.646,101.497z"/>
				<path style="opacity:0.3;fill:#ABADB0;" d="M179.928,100.197c-0.355,3.511-0.717,7.023-1.092,10.536
					c11.445-0.664,21.999-1.584,31.193-2.739c8.172-1.026,14.962-2.206,20.258-3.504l3.252-11.832
					C226.828,95.186,208.991,98.422,179.928,100.197z"/>
				<path style="opacity:0.4;fill:#ABADB0;" d="M215.955,107.187c5.58-0.823,10.373-1.724,14.332-2.697l3.252-11.832
					c-2.92,1.098-7.943,2.331-15.082,3.523C217.616,99.846,216.785,103.517,215.955,107.187z"/>
				<path style="opacity:0.5;fill:#ABADB0;" d="M39.773,94.392c-2.319-0.545-4.208-1.084-5.635-1.595l3.247,11.785
					c1.688,0.405,3.541,0.798,5.523,1.181C41.848,101.975,40.803,98.188,39.773,94.392z"/>
				<path style="opacity:0.4;fill:#ABADB0;" d="M98.668,100.777c-5.812-0.25-11.253-0.556-16.317-0.909
					c0.621,3.529,1.226,7.065,1.813,10.603c5.118,0.33,10.443,0.608,15.922,0.832C99.589,107.798,99.106,104.291,98.668,100.777z"/>
			</g>
			<path style="fill:#434648;" d="M251.265,28.191c0,8.147-52.571,14.753-117.419,14.753c-64.851,0-117.421-6.605-117.421-14.753
				c0-8.148,52.571-14.752,117.421-14.752C198.694,13.439,251.265,20.043,251.265,28.191z"/>
			<path style="fill:#BE4734;" d="M250.227,28.063c0,7.692-52.106,13.93-116.381,13.93c-64.274,0-116.381-6.237-116.381-13.93
				c0-7.695,52.106-13.931,116.381-13.931C198.12,14.131,250.227,20.368,250.227,28.063z"/>
			<path style="fill:#6C2212;" d="M246.408,28.191c0,6.48-50.396,11.733-112.563,11.733c-62.166,0-112.565-5.252-112.565-11.733
				c0-6.481,50.398-11.733,112.565-11.733C196.012,16.458,246.408,21.71,246.408,28.191z"/>
			<g style="opacity:0.1;">
				<path style="fill:#FFF89B;" d="M37.442,21.983l2.889,12.874c0.446,0.069,0.897,0.135,1.357,0.202l-2.98-13.286
					C38.282,21.844,37.857,21.914,37.442,21.983z"/>
				<path style="fill:#FFF89B;" d="M55.951,19.634l3.128,17.408c0.438,0.038,0.88,0.078,1.322,0.119l-3.169-17.649
					C56.8,19.551,56.377,19.595,55.951,19.634z"/>
				<path style="fill:#FFF89B;" d="M74.806,18.142l2.733,20.264c0.434,0.024,0.869,0.049,1.304,0.076l-2.755-20.415
					C75.659,18.09,75.23,18.116,74.806,18.142z"/>
				<path style="fill:#FFF89B;" d="M93.865,17.185l1.987,22.086c0.431,0.016,0.86,0.029,1.29,0.045l-1.994-22.179
					C94.718,17.151,94.291,17.17,93.865,17.185z"/>
				<path style="fill:#FFF89B;" d="M113.05,16.642l1.036,23.115c0.424,0.009,0.855,0.016,1.284,0.025l-1.038-23.162
					C113.905,16.626,113.477,16.633,113.05,16.642z"/>
				<path style="fill:#FFF89B;" d="M132.96,16.458c-0.221,0-0.438,0-0.652,0l-0.016,23.466c0.223,0,0.442,0,0.668,0
					c0.205,0,0.411,0,0.614,0l0.013-23.466C133.376,16.458,133.167,16.458,132.96,16.458z"/>
				<path style="fill:#FFF89B;" d="M151.582,16.62l-1.065,23.162c0.431-0.009,0.855-0.016,1.282-0.025l1.067-23.115
					C152.439,16.633,152.01,16.626,151.582,16.62z"/>
				<path style="fill:#FFF89B;" d="M170.834,17.14L168.8,39.316c0.433-0.016,0.862-0.029,1.289-0.045l2.027-22.084
					C171.692,17.172,171.266,17.154,170.834,17.14z"/>
				<path style="fill:#FFF89B;" d="M190.004,18.075l-2.807,20.399c0.438-0.026,0.869-0.051,1.302-0.078l2.784-20.24
					C190.861,18.126,190.431,18.101,190.004,18.075z"/>
				<path style="fill:#FFF89B;" d="M209.011,19.545l-3.23,17.59c0.444-0.037,0.884-0.076,1.324-0.117l3.186-17.354
					C209.866,19.624,209.44,19.582,209.011,19.545z"/>
				<path style="fill:#FFF89B;" d="M227.71,21.853l-3.021,13.138c0.462-0.069,0.913-0.135,1.36-0.204l2.927-12.723
					C228.558,21.994,228.141,21.924,227.71,21.853z"/>
			</g>
			<path style="opacity:0.7;fill:#FFFFFF;" d="M231.101,93.476c0,0-0.718,0.213-2.069,0.612c-0.67,0.222-1.516,0.424-2.509,0.659
				c-0.992,0.245-2.135,0.524-3.425,0.766c-1.29,0.266-2.715,0.56-4.283,0.809c-0.779,0.135-1.594,0.273-2.438,0.417
				c-0.846,0.128-1.721,0.257-2.628,0.395c-0.907,0.13-1.84,0.266-2.807,0.405c-0.962,0.122-1.958,0.249-2.976,0.378
				c-2.036,0.276-4.186,0.488-6.43,0.731c-2.24,0.251-4.579,0.435-7,0.671c-2.422,0.189-4.93,0.392-7.504,0.597
				c-5.155,0.358-10.592,0.694-16.223,0.947c-2.813,0.127-5.676,0.26-8.573,0.35c-1.452,0.047-2.909,0.098-4.374,0.148
				c-1.465,0.038-2.938,0.076-4.418,0.111c-5.916,0.15-11.927,0.22-17.94,0.244c-3.007,0.027-6.013-0.043-9.004-0.057
				c-2.992-0.037-5.975-0.07-8.933-0.099c-2.961-0.086-5.892-0.162-8.793-0.244c-2.898-0.073-5.763-0.145-8.578-0.297
				c-2.815-0.128-5.584-0.255-8.292-0.378c-2.71-0.103-5.354-0.333-7.935-0.484c-2.576-0.179-5.086-0.315-7.508-0.512
				c-2.42-0.218-4.76-0.426-7.006-0.628c-1.121-0.099-2.222-0.2-3.295-0.293c-1.071-0.108-2.119-0.242-3.139-0.361
				c-2.041-0.246-3.976-0.477-5.796-0.697c-1.822-0.187-3.51-0.501-5.078-0.736c-1.563-0.247-3.002-0.475-4.302-0.677
				c-0.324-0.051-0.638-0.103-0.949-0.15c-0.304-0.065-0.596-0.128-0.886-0.187c-0.572-0.121-1.107-0.234-1.608-0.341
				c-0.998-0.213-1.849-0.394-2.536-0.54c-1.38-0.294-2.114-0.452-2.114-0.452s0.737,0.155,2.116,0.438
				c0.69,0.143,1.541,0.316,2.541,0.524c0.5,0.101,1.036,0.213,1.61,0.331c0.288,0.058,0.581,0.117,0.886,0.18
				c0.308,0.047,0.623,0.095,0.949,0.143c1.299,0.195,2.742,0.415,4.309,0.649c1.565,0.223,3.253,0.529,5.077,0.705
				c1.819,0.205,3.756,0.424,5.796,0.657c1.02,0.11,2.065,0.249,3.142,0.348c1.076,0.096,2.17,0.191,3.292,0.287
				c2.247,0.198,4.586,0.398,7.007,0.609c2.42,0.192,4.93,0.325,7.506,0.498c2.577,0.148,5.222,0.372,7.933,0.466
				c2.708,0.117,5.477,0.239,8.292,0.36c2.811,0.143,5.676,0.212,8.574,0.28c2.898,0.071,5.829,0.146,8.786,0.219
				c5.919,0.055,11.929,0.122,17.937,0.122c6.011-0.011,12.021-0.07,17.933-0.209c1.48-0.034,2.952-0.067,4.419-0.101
				c1.463-0.047,2.923-0.09,4.37-0.138c2.9-0.081,5.76-0.205,8.574-0.326c5.631-0.243,11.067-0.569,16.218-0.914
				c2.577-0.198,5.079-0.392,7.504-0.581c2.418-0.225,4.758-0.405,6.999-0.654c2.242-0.236,4.387-0.449,6.428-0.709
				c1.018-0.126,2.012-0.242,2.979-0.36c0.964-0.133,1.9-0.26,2.807-0.387c0.904-0.131,1.784-0.255,2.63-0.375
				c0.844-0.14,1.654-0.271,2.439-0.403c1.565-0.238,2.991-0.525,4.284-0.778c1.295-0.236,2.436-0.507,3.427-0.745
				c0.996-0.232,1.842-0.427,2.515-0.639C230.38,93.686,231.101,93.476,231.101,93.476z"/>
			<path style="opacity:0.7;fill:#FFFFFF;" d="M224.537,115.128c0,0-0.665,0.213-1.911,0.614c-0.619,0.216-1.398,0.418-2.319,0.653
				c-0.918,0.245-1.972,0.525-3.171,0.766c-1.191,0.261-2.511,0.559-3.962,0.808c-0.726,0.134-1.478,0.272-2.26,0.419
				c-0.786,0.124-1.596,0.256-2.436,0.392c-0.842,0.133-1.71,0.267-2.601,0.406c-0.897,0.126-1.817,0.251-2.764,0.378
				c-1.889,0.276-3.885,0.489-5.966,0.731c-2.079,0.255-4.253,0.437-6.499,0.67c-2.249,0.195-4.575,0.396-6.964,0.603
				c-4.787,0.355-9.836,0.693-15.064,0.946c-2.617,0.128-5.276,0.26-7.964,0.348c-1.346,0.053-2.701,0.103-4.061,0.152
				c-1.362,0.037-2.731,0.072-4.106,0.109c-5.494,0.154-11.078,0.221-16.665,0.245c-2.793,0.027-5.583-0.04-8.363-0.058
				c-2.782-0.034-5.549-0.068-8.297-0.1c-2.748-0.081-5.473-0.16-8.169-0.237c-2.693-0.074-5.352-0.152-7.964-0.298
				c-2.617-0.132-5.187-0.257-7.703-0.381c-2.519-0.104-4.972-0.331-7.368-0.484c-2.394-0.181-4.724-0.316-6.973-0.518
				c-2.246-0.216-4.417-0.42-6.502-0.623c-1.042-0.1-2.063-0.198-3.061-0.295c-0.996-0.106-1.967-0.241-2.914-0.364
				c-1.891-0.244-3.688-0.475-5.376-0.692c-1.692-0.187-3.253-0.503-4.706-0.738c-1.454-0.245-2.784-0.474-3.992-0.678
				c-0.299-0.054-0.592-0.101-0.877-0.149c-0.282-0.063-0.554-0.126-0.82-0.185c-0.529-0.12-1.029-0.235-1.491-0.343
				c-0.924-0.213-1.71-0.392-2.347-0.538c-1.277-0.293-1.956-0.448-1.956-0.448s0.679,0.15,1.958,0.433
				c0.639,0.145,1.427,0.316,2.351,0.521c0.464,0.105,0.962,0.214,1.491,0.336c0.268,0.054,0.541,0.117,0.822,0.18
				c0.286,0.045,0.578,0.091,0.879,0.141c1.206,0.195,2.541,0.413,3.992,0.651c1.458,0.224,3.019,0.529,4.713,0.705
				c1.688,0.206,3.483,0.426,5.378,0.657c0.949,0.109,1.916,0.245,2.911,0.348c0.999,0.096,2.017,0.19,3.059,0.287
				c2.083,0.195,4.255,0.4,6.501,0.608c2.249,0.195,4.579,0.327,6.968,0.501c2.398,0.147,4.852,0.37,7.368,0.47
				c2.518,0.116,5.085,0.233,7.703,0.358c2.61,0.144,5.27,0.209,7.962,0.279c2.693,0.073,5.416,0.143,8.161,0.219
				c5.497,0.057,11.083,0.122,16.66,0.12c5.582-0.013,11.164-0.066,16.656-0.207c1.377-0.034,2.744-0.066,4.103-0.098
				c1.36-0.048,2.715-0.096,4.062-0.144c2.691-0.081,5.35-0.204,7.964-0.327c5.227-0.24,10.274-0.567,15.06-0.913
				c2.389-0.196,4.715-0.396,6.964-0.583c2.243-0.228,4.418-0.407,6.497-0.652c2.078-0.239,4.072-0.453,5.961-0.713
				c0.947-0.126,1.871-0.241,2.766-0.359c0.893-0.131,1.762-0.264,2.602-0.39c0.841-0.128,1.654-0.255,2.44-0.374
				c0.781-0.14,1.536-0.276,2.262-0.404c1.451-0.238,2.773-0.528,3.967-0.778c1.197-0.234,2.255-0.505,3.173-0.744
				c0.917-0.226,1.704-0.426,2.322-0.638C223.872,115.337,224.537,115.128,224.537,115.128z"/>
			<g style="opacity:0.8;">

					<linearGradient id="SVGID_00000174585542414098640110000000759697661066469562_" gradientUnits="userSpaceOnUse" x1="40.4532" y1="24.0573" x2="40.4532" y2="43.0671">
					<stop  offset="0" style="stop-color:#D45B2F"/>
					<stop  offset="0.4835" style="stop-color:#A74332"/>
					<stop  offset="1" style="stop-color:#7A1F12"/>
				</linearGradient>
				<path style="fill:url(#SVGID_00000174585542414098640110000000759697661066469562_);" d="M38.331,21.983l2.889,12.874
					c0.444,0.069,0.896,0.135,1.355,0.202l-2.979-13.286C39.168,21.844,38.744,21.914,38.331,21.983z"/>

					<linearGradient id="SVGID_00000056414566190709610180000003842732076845546158_" gradientUnits="userSpaceOnUse" x1="59.0638" y1="24.0605" x2="59.0638" y2="43.0664">
					<stop  offset="0" style="stop-color:#D45B2F"/>
					<stop  offset="0.4835" style="stop-color:#A74332"/>
					<stop  offset="1" style="stop-color:#7A1F12"/>
				</linearGradient>
				<path style="fill:url(#SVGID_00000056414566190709610180000003842732076845546158_);" d="M56.838,19.634l3.128,17.408
					c0.44,0.038,0.882,0.078,1.324,0.119l-3.17-17.649C57.688,19.551,57.264,19.595,56.838,19.634z"/>

					<linearGradient id="SVGID_00000166662685718965400800000015048735515043425708_" gradientUnits="userSpaceOnUse" x1="77.7132" y1="24.0607" x2="77.7132" y2="43.0661">
					<stop  offset="0" style="stop-color:#D45B2F"/>
					<stop  offset="0.4835" style="stop-color:#A74332"/>
					<stop  offset="1" style="stop-color:#7A1F12"/>
				</linearGradient>
				<path style="fill:url(#SVGID_00000166662685718965400800000015048735515043425708_);" d="M75.695,18.142l2.733,20.264
					c0.433,0.024,0.869,0.049,1.304,0.076l-2.755-20.415C76.548,18.09,76.117,18.116,75.695,18.142z"/>

					<linearGradient id="SVGID_00000050662375044505779710000003520381304287034789_" gradientUnits="userSpaceOnUse" x1="96.3899" y1="24.0589" x2="96.3899" y2="43.0644">
					<stop  offset="0" style="stop-color:#D45B2F"/>
					<stop  offset="0.4835" style="stop-color:#A74332"/>
					<stop  offset="1" style="stop-color:#7A1F12"/>
				</linearGradient>
				<path style="fill:url(#SVGID_00000050662375044505779710000003520381304287034789_);" d="M94.751,17.185l1.987,22.086
					c0.433,0.016,0.859,0.029,1.291,0.045l-1.994-22.179C95.608,17.151,95.177,17.17,94.751,17.185z"/>

					<linearGradient id="SVGID_00000009576390540862613120000008728751083076127876_" gradientUnits="userSpaceOnUse" x1="115.0989" y1="24.0606" x2="115.0989" y2="43.0667">
					<stop  offset="0" style="stop-color:#D45B2F"/>
					<stop  offset="0.4835" style="stop-color:#A74332"/>
					<stop  offset="1" style="stop-color:#7A1F12"/>
				</linearGradient>
				<path style="fill:url(#SVGID_00000009576390540862613120000008728751083076127876_);" d="M113.939,16.642l1.036,23.115
					c0.426,0.009,0.853,0.016,1.284,0.025L115.22,16.62C114.794,16.626,114.363,16.633,113.939,16.642z"/>

					<linearGradient id="SVGID_00000133494601666953337820000017280165485232843198_" gradientUnits="userSpaceOnUse" x1="133.8277" y1="24.0594" x2="133.8277" y2="43.0657">
					<stop  offset="0" style="stop-color:#D45B2F"/>
					<stop  offset="0.4835" style="stop-color:#A74332"/>
					<stop  offset="1" style="stop-color:#7A1F12"/>
				</linearGradient>
				<path style="fill:url(#SVGID_00000133494601666953337820000017280165485232843198_);" d="M133.845,16.458
					c-0.219,0-0.435,0-0.652,0l-0.013,23.466c0.223,0,0.442,0,0.665,0c0.208,0,0.411,0,0.616,0l0.014-23.466
					C134.265,16.458,134.056,16.458,133.845,16.458z"/>

					<linearGradient id="SVGID_00000154414379204659524240000000765286890992672943_" gradientUnits="userSpaceOnUse" x1="152.5798" y1="24.0606" x2="152.5798" y2="43.0667">
					<stop  offset="0" style="stop-color:#D45B2F"/>
					<stop  offset="0.4835" style="stop-color:#A74332"/>
					<stop  offset="1" style="stop-color:#7A1F12"/>
				</linearGradient>
				<path style="fill:url(#SVGID_00000154414379204659524240000000765286890992672943_);" d="M152.468,16.62l-1.063,23.162
					c0.429-0.009,0.855-0.016,1.282-0.025l1.067-23.115C153.328,16.633,152.896,16.626,152.468,16.62z"/>

					<linearGradient id="SVGID_00000073690299436196171970000001153955357582517427_" gradientUnits="userSpaceOnUse" x1="171.3454" y1="24.0598" x2="171.3454" y2="43.065">
					<stop  offset="0" style="stop-color:#D45B2F"/>
					<stop  offset="0.4835" style="stop-color:#A74332"/>
					<stop  offset="1" style="stop-color:#7A1F12"/>
				</linearGradient>
				<path style="fill:url(#SVGID_00000073690299436196171970000001153955357582517427_);" d="M171.723,17.14l-2.036,22.175
					c0.433-0.016,0.862-0.029,1.291-0.045l2.027-22.084C172.578,17.172,172.151,17.154,171.723,17.14z"/>

					<linearGradient id="SVGID_00000126285823885151240270000012360881867239729802_" gradientUnits="userSpaceOnUse" x1="190.1294" y1="24.0596" x2="190.1294" y2="43.0666">
					<stop  offset="0" style="stop-color:#D45B2F"/>
					<stop  offset="0.4835" style="stop-color:#A74332"/>
					<stop  offset="1" style="stop-color:#7A1F12"/>
				</linearGradient>
				<path style="fill:url(#SVGID_00000126285823885151240270000012360881867239729802_);" d="M190.89,18.075l-2.806,20.399
					c0.438-0.026,0.871-0.051,1.304-0.078l2.787-20.24C191.75,18.126,191.319,18.101,190.89,18.075z"/>

					<linearGradient id="SVGID_00000131350032033431312680000001430109206508584089_" gradientUnits="userSpaceOnUse" x1="208.9219" y1="24.0616" x2="208.9219" y2="43.0619">
					<stop  offset="0" style="stop-color:#D45B2F"/>
					<stop  offset="0.4835" style="stop-color:#A74332"/>
					<stop  offset="1" style="stop-color:#7A1F12"/>
				</linearGradient>
				<path style="fill:url(#SVGID_00000131350032033431312680000001430109206508584089_);" d="M209.898,19.545l-3.23,17.59
					c0.444-0.037,0.886-0.076,1.324-0.117l3.186-17.354C210.754,19.624,210.328,19.582,209.898,19.545z"/>

					<linearGradient id="SVGID_00000139295506620386513730000002537382379700750782_" gradientUnits="userSpaceOnUse" x1="227.7198" y1="24.0581" x2="227.7198" y2="43.0654">
					<stop  offset="0" style="stop-color:#D45B2F"/>
					<stop  offset="0.4835" style="stop-color:#A74332"/>
					<stop  offset="1" style="stop-color:#7A1F12"/>
				</linearGradient>
				<path style="fill:url(#SVGID_00000139295506620386513730000002537382379700750782_);" d="M228.599,21.853l-3.023,13.138
					c0.465-0.069,0.916-0.135,1.362-0.204l2.927-12.723C229.449,21.994,229.027,21.924,228.599,21.853z"/>
			</g>
			<path style="opacity:0.4;fill:#FFFFFF;" d="M21.28,28.191c0.02,0.004-0.025-0.236,0.163-0.633
				c0.19-0.392,0.656-0.868,1.367-1.311c1.422-0.908,3.766-1.744,6.793-2.528c6.071-1.567,14.933-2.954,25.612-4.052
				c21.366-2.212,50-3.414,78.63-3.447c28.628,0.029,57.264,1.235,78.629,3.447c10.681,1.098,19.545,2.484,25.613,4.052
				c3.03,0.785,5.37,1.621,6.794,2.528c0.71,0.443,1.179,0.919,1.366,1.311c0.186,0.397,0.143,0.64,0.161,0.633
				c-0.018,0.006,0.025-0.236-0.167-0.627c-0.19-0.393-0.659-0.863-1.371-1.298c-1.429-0.893-3.771-1.711-6.801-2.47
				c-6.077-1.529-14.948-2.792-25.62-3.871c-21.358-2.152-49.987-3.271-78.604-3.229c-28.614-0.047-57.246,1.076-78.604,3.229
				c-10.672,1.076-19.545,2.342-25.618,3.871c-3.031,0.759-5.378,1.577-6.803,2.47c-0.712,0.435-1.181,0.905-1.375,1.298
				C21.26,27.955,21.3,28.197,21.28,28.191z"/>
			<path style="opacity:0.8;fill:#FFFFFF;" d="M244.482,33.144c0,0-0.813,0.255-2.335,0.74c-0.755,0.262-1.708,0.506-2.833,0.789
				c-1.119,0.293-2.409,0.629-3.872,0.924c-1.458,0.314-3.07,0.675-4.843,0.976c-0.884,0.162-1.804,0.33-2.757,0.507
				c-0.962,0.151-1.954,0.308-2.98,0.473c-1.025,0.158-2.083,0.323-3.175,0.492c-1.094,0.147-2.217,0.3-3.374,0.454
				c-2.307,0.332-4.745,0.587-7.283,0.885c-2.541,0.304-5.193,0.525-7.935,0.807c-2.746,0.256-5.588,0.479-8.506,0.727
				c-5.841,0.428-12.007,0.839-18.393,1.145c-3.193,0.153-6.437,0.313-9.723,0.421c-1.644,0.058-3.298,0.121-4.959,0.18
				c-1.663,0.045-3.333,0.088-5.012,0.131c-6.705,0.184-13.526,0.265-20.344,0.295c-3.409,0.024-6.816-0.028-10.21-0.035
				c-3.396-0.051-6.779-0.103-10.132-0.149c-6.709-0.154-13.313-0.338-19.697-0.632c-6.388-0.261-12.557-0.638-18.402-1.022
				c-5.843-0.423-11.367-0.87-16.452-1.392c-2.543-0.251-4.981-0.502-7.292-0.792c-2.316-0.26-4.506-0.562-6.567-0.846
				c-4.114-0.57-7.687-1.169-10.619-1.711c-1.471-0.246-2.768-0.561-3.905-0.785c-0.567-0.121-1.092-0.231-1.571-0.334
				c-0.476-0.118-0.909-0.224-1.297-0.32c-1.55-0.381-2.378-0.583-2.378-0.583s0.831,0.2,2.383,0.569
				c0.388,0.095,0.821,0.198,1.299,0.312c0.48,0.099,1.004,0.208,1.572,0.327c1.139,0.215,2.434,0.524,3.907,0.758
				c2.934,0.533,6.511,1.109,10.628,1.652c2.057,0.271,4.247,0.56,6.566,0.807c2.311,0.274,4.747,0.532,7.294,0.778
				c5.083,0.51,10.606,0.948,16.446,1.354c5.847,0.375,12.012,0.737,18.398,0.986c6.383,0.282,12.985,0.452,19.692,0.592
				c3.354,0.042,6.736,0.087,10.128,0.132c3.394,0,6.805,0.044,10.21,0.014c6.816-0.014,13.633-0.083,20.34-0.253
				c1.677-0.04,3.347-0.081,5.01-0.121c1.659-0.058,3.311-0.113,4.955-0.171c3.288-0.1,6.532-0.255,9.723-0.4
				c6.384-0.294,12.548-0.69,18.389-1.108c2.92-0.242,5.76-0.458,8.504-0.708c2.741-0.279,5.396-0.491,7.93-0.794
				c2.543-0.287,4.977-0.548,7.286-0.863c1.154-0.151,2.279-0.298,3.376-0.438c1.091-0.161,2.147-0.318,3.177-0.474
				c1.025-0.156,2.019-0.311,2.979-0.457c0.956-0.166,1.878-0.332,2.762-0.489c1.771-0.29,3.387-0.639,4.844-0.947
				c1.465-0.287,2.753-0.616,3.874-0.902c1.124-0.275,2.083-0.518,2.835-0.773C243.667,33.397,244.482,33.144,244.482,33.144z"/>
		</g>
		<g style="opacity:0.3;">
			<path style="fill:#8B3021;" d="M24.154,30.67c-0.304-0.973-0.594-1.951-0.84-2.941c-0.116-0.474-0.25-0.947-0.371-1.419
				c-0.188,0.123-0.375,0.249-0.554,0.384c0.326,1.256,0.656,2.514,0.996,3.768C23.64,30.53,23.896,30.6,24.154,30.67z"/>
			<path style="fill:#8B3021;" d="M38.96,34.578c-3.487-3.398-6.417-6.949-7.895-11.337c-0.335,0.075-0.672,0.155-1.007,0.236
				c0.623,2.409,1.581,4.931,3.503,6.853c1.417,1.42,2.82,2.797,4.258,4.148C38.197,34.511,38.579,34.545,38.96,34.578z"/>
			<path style="fill:#8B3021;" d="M58.37,34.897c0.095,0.404,0.174,0.809,0.259,1.211c0.131,0,0.266,0,0.398,0
				c-0.697-3.54-1.23-7.107-1.922-10.614c-0.382-1.931-0.88-3.853-1.4-5.774c-0.395,0.061-0.791,0.117-1.188,0.164
				c0.449,1.776,0.922,3.545,1.369,5.309C56.708,28.429,57.608,31.653,58.37,34.897z"/>
			<path style="fill:#8B3021;" d="M82.378,37.869c0.497,0.003,0.998,0.01,1.494,0.014c-0.831-2.504-1.692-5.015-2.367-7.539
				c-1-3.727-1.643-7.495-2.777-11.205c-0.092-0.3-0.189-0.597-0.291-0.894c-0.395,0.009-0.792,0.024-1.19,0.036
				c1.023,3.713,1.833,7.441,2.688,11.179C80.576,32.27,81.386,35.087,82.378,37.869z"/>
			<path style="fill:#8B3021;" d="M93.016,37.839c0.404-1.6,0.715-3.208,0.73-4.888c0.052-5.23-0.096-10.474-0.169-15.713
				c-0.157-0.002-0.315,0-0.471-0.002c-0.056,4.145-0.085,8.285-0.313,12.432c-0.152,2.782,0.011,5.454-0.616,8.172
				C92.456,37.839,92.734,37.835,93.016,37.839z"/>
			<path style="fill:#8B3021;" d="M86.021,37.899c0.094,0,0.186,0,0.277,0c-1.243-3.243-2.119-6.586-3.23-9.811
				c-1.13-3.291-2.219-6.575-3.119-9.896l-0.514,0.019c0.833,3.72,1.972,7.391,3.481,11.017
				C84.103,32.08,85.036,35.001,86.021,37.899z"/>
			<path style="fill:#8B3021;" d="M90.176,17.449c-0.174,1.512-0.337,3.03-0.475,4.548c-0.351,3.776-0.907,7.569-1.119,11.351
				c-0.018,0.324,0.686-0.153,0.724-0.318c1.25-5.166,1.567-10.435,1.79-15.698C90.788,17.371,90.482,17.409,90.176,17.449z"/>
			<path style="fill:#8B3021;" d="M86.863,17.826c-0.169,0.018-0.339,0.033-0.509,0.051c0.052,3.067-0.018,6.143,0.532,9.191
				c0.038,0.208,0.431-0.122,0.438-0.231c0.21-2.443-0.04-4.928-0.324-7.364C86.939,18.926,86.896,18.377,86.863,17.826z"/>
			<path style="fill:#8B3021;" d="M120.909,39.797c-0.561-7.603-1.099-15.22-2.161-22.8c-0.186-0.003-0.371-0.008-0.556-0.01
				c0.723,7.602,1.277,15.203,1.854,22.804C120.336,39.791,120.623,39.795,120.909,39.797z"/>
			<path style="fill:#8B3021;" d="M125.582,39.757c-0.051-0.718-0.096-1.432-0.127-2.152c-0.005-0.15-0.326,0.08-0.333,0.171
				c-0.033,0.669-0.051,1.328-0.058,1.99C125.236,39.761,125.408,39.761,125.582,39.757z"/>
			<path style="fill:#8B3021;" d="M138.253,39.271c0.181-3.911-0.026-7.847,0.232-11.766c0.241-3.651,0.967-7.348,0.931-11.022
				c-0.184,0.015-0.371,0.03-0.556,0.04c-0.214,3.578-1.114,7.151-1.578,10.696c-0.534,4.028-0.601,8.084-0.587,12.129
				C137.212,39.322,137.73,39.295,138.253,39.271z"/>
			<path style="fill:#8B3021;" d="M145.917,38.88c0.107-0.953,0.235-1.91,0.402-2.865c0.681-3.858,0.842-7.946,0.734-11.838
				c-0.002-0.177-0.382,0.1-0.391,0.204c-0.449,4.873-1.458,9.715-2.17,14.569C144.966,38.929,145.444,38.906,145.917,38.88z"/>
			<path style="fill:#8B3021;" d="M167.823,25.876c0.308,4.344,0.263,8.644,1.297,12.933c0.48,0.025,0.965,0.047,1.447,0.063
				c-0.565-2.209-0.989-4.436-1.091-6.674c-0.174-3.872-0.267-7.759-1.079-11.594c-0.122-0.575-0.229-1.895-0.467-3.293
				c-0.386-0.027-0.779-0.044-1.165-0.074c0.065,0.95,0.092,1.812,0.178,2.252C167.349,21.612,167.673,23.741,167.823,25.876z"/>
			<path style="fill:#8B3021;" d="M191.605,37.439c0.518-4.009,0.576-8.049,1.15-12.059c0.346-2.397,0.873-4.795,1.349-7.197
				c-0.34-0.005-0.672-0.012-1.012-0.015c-1.054,5.385-1.661,10.777-1.936,16.277c-0.051,1.021-0.145,2.025-0.275,3.03
				C191.12,37.462,191.361,37.451,191.605,37.439z"/>
			<path style="fill:#8B3021;" d="M172.556,38.045c0.029,0.171,0.092,0.477,0.183,0.881c0.456,0.003,0.906,0,1.359-0.007
				c-0.431-2.172-0.712-4.363-0.909-6.561c-0.339-3.831-0.35-7.655-0.754-11.49c-0.117-1.089-0.197-2.197-0.307-3.304
				c-0.178-0.011-0.359-0.02-0.54-0.031c0.174,2.608,0.094,5.252,0.286,7.752C172.203,29.548,171.888,33.786,172.556,38.045z"/>
			<path style="fill:#8B3021;" d="M188.477,37.647c0.286-1.074,0.554-2.146,0.804-3.234c1.241-5.391,2.313-10.802,2.827-16.254
				c-0.279-0.002-0.561-0.002-0.837-0.007c-0.297,4.517-0.69,9.007-1.804,13.49c-0.496,1.997-0.867,4.024-1.329,6.036
				C188.251,37.668,188.365,37.661,188.477,37.647z"/>
			<path style="fill:#8B3021;" d="M175.862,31.136c0.203,2.58,0.692,5.104,1.232,7.639c0.288-0.022,0.576-0.047,0.866-0.073
				c-0.364-2.07-0.571-4.164-0.795-6.179c-0.389-3.567-0.869-7.037-1.512-10.581c-0.254-1.423-0.598-2.833-0.87-4.252
				c-0.288-0.011-0.574-0.026-0.862-0.04c0.093,0.991,0.216,1.981,0.402,2.968C174.987,24.118,175.579,27.615,175.862,31.136z"/>
			<path style="fill:#8B3021;" d="M178.607,27.296c0.526,3.572,0.775,7.546,1.907,11.189c0.263-0.022,0.524-0.044,0.788-0.067
				c-0.75-3.546-0.904-7.165-1.32-10.735c-0.314-2.689-0.897-5.397-1.436-8.063c-0.112-0.558-0.243-1.159-0.368-1.783
				c-0.279-0.011-0.557-0.025-0.833-0.036c0.013,0.161,0.029,0.323,0.038,0.48C177.608,21.286,178.162,24.301,178.607,27.296z"/>
			<path style="fill:#8B3021;" d="M185.982,18.119c-1.066,6.088-1.423,12.343-1.514,18.426c-0.002,0.195,0.409-0.114,0.426-0.225
				c0.683-3.994,1.157-7.979,1.616-11.989c0.237-2.064,0.259-4.131,0.331-6.196C186.553,18.131,186.269,18.124,185.982,18.119z"/>
			<path style="fill:#8B3021;" d="M180.616,17.941c-0.114,1.401-0.243,2.707,0.531,4.042c0.17,0.291,0.802-0.31,0.798-0.483
				c-0.036-1.179-0.315-2.338-0.399-3.52C181.234,17.966,180.926,17.955,180.616,17.941z"/>
			<path style="fill:#8B3021;" d="M202.221,37.22c0.891-2.323,1.842-4.629,2.93-6.896c1.583-3.292,2.096-6.826,3.414-10.184
				c0.101-0.256,0.21-0.513,0.319-0.771c-0.27-0.032-0.545-0.069-0.817-0.101c-0.214,0.422-0.422,0.843-0.609,1.261
				c-1.722,3.841-2.366,7.857-4.247,11.674c-0.813,1.651-1.366,3.346-1.846,5.056C201.649,37.249,201.936,37.234,202.221,37.22z"/>
			<path style="fill:#8B3021;" d="M207.937,36.801c-0.064-1.039-0.091-2.076-0.026-3.114c0.289-4.748,2.449-9.331,4.097-13.916
				c-0.241-0.033-0.478-0.062-0.714-0.095c-0.103,0.26-0.212,0.516-0.306,0.778c-1.531,4.229-3.755,8.503-4.021,12.892
				c-0.072,1.188-0.064,2.365-0.018,3.544C207.278,36.86,207.607,36.835,207.937,36.801z"/>
			<path style="fill:#8B3021;" d="M218.399,35.543c0.384-0.055,0.759-0.111,1.141-0.168c0.402-1.798,0.764-3.604,1.248-5.391
				c0.65-2.402,1.614-4.977,1.436-7.45c-0.034-0.434-0.044-0.852-0.049-1.263c-0.389-0.022-0.774-0.054-1.156-0.099
				c0.013,0.632,0.064,1.267,0.147,1.915c0.339,2.616-1.047,5.673-1.746,8.233C219.038,32.721,218.721,34.13,218.399,35.543z"/>
			<path style="fill:#8B3021;" d="M225.278,34.361c1.494-3.625,3.083-7.227,4.742-10.809c0.139-0.296,0.277-0.597,0.413-0.895
				c-0.219-0.07-0.44-0.136-0.661-0.205c-0.244,0.484-0.485,0.966-0.703,1.438c-1.659,3.521-3.26,7.077-4.725,10.657
				C224.656,34.487,224.968,34.423,225.278,34.361z"/>
			<path style="fill:#8B3021;" d="M227.283,21.76c-0.775,2.098-1.636,4.176-2.644,6.228c-1.252,2.569-0.882-2.222-0.864-2.891
				c0.034-1.247,0.246-2.491,0.512-3.731c-0.168-0.006-0.335-0.017-0.504-0.022c-0.587,2.619-1.563,6.091-0.255,8.475
				c0.119,0.213,0.525-0.08,0.617-0.159c2.194-1.852,3.172-5.017,4.019-7.678C227.871,21.902,227.58,21.829,227.283,21.76z"/>
			<path style="fill:#8B3021;" d="M235.696,32.908c0.149-0.018,0.306-0.037,0.462-0.055c0.919-2.917,1.605-5.899,2.326-8.857
				c-0.263-0.034-0.524-0.066-0.788-0.095c-0.728,3.016-1.52,6.069-2.474,9.055C235.379,32.941,235.538,32.926,235.696,32.908z"/>
			<path style="fill:#8B3021;" d="M242.412,31.041c0.652-1.693,1.282-3.4,1.84-5.125c-0.241-0.146-0.484-0.287-0.739-0.417
				c-0.029,0.095-0.058,0.191-0.087,0.282c-0.596,1.897-1.357,3.771-2.135,5.643C241.664,31.291,242.039,31.166,242.412,31.041z"/>
		</g>
	</g>
</g>
</svg>
